<svg xmlns="http://www.w3.org/2000/svg" width="70.834" height="73.493" viewBox="0 0 70.834 73.493">
  <g id="color_line" data-name="color line" transform="translate(-0.833 -0.355)">
    <path id="Path_230" data-name="Path 230" d="M8.505,11.3H67V46.75H8.505Z" fill="#eeefee"/>
    <path id="Path_231" data-name="Path 231" d="M4.333,3.856H71.166V11.3H4.333Z" fill="#9297ab"/>
    <g id="Group_9" data-name="Group 9">
      <path id="Path_232" data-name="Path 232" d="M39.43,40.75a.5.5,0,0,1-.5-.5V29.092a.5.5,0,1,1,1,0V40.25A.5.5,0,0,1,39.43,40.75Z" fill="#323c6b"/>
      <path id="Path_233" data-name="Path 233" d="M45.491,40.75a.5.5,0,0,1-.5-.5V25.708a.5.5,0,0,1,1,0V40.25A.5.5,0,0,1,45.491,40.75Z" fill="#323c6b"/>
      <path id="Path_234" data-name="Path 234" d="M51.553,40.75a.5.5,0,0,1-.5-.5V32.515a.5.5,0,0,1,1,0V40.25A.5.5,0,0,1,51.553,40.75Z" fill="#323c6b"/>
      <path id="Path_235" data-name="Path 235" d="M57.615,40.75a.5.5,0,0,1-.5-.5V27.3a.5.5,0,1,1,1,0V40.25A.5.5,0,0,1,57.615,40.75Z" fill="#323c6b"/>
      <path id="Path_236" data-name="Path 236" d="M51.067,26.208h-.044a.5.5,0,0,1-.358-.2L45.407,18.89l-5.653,4.8a.5.5,0,0,1-.647-.763l6.062-5.146a.5.5,0,0,1,.726.084l5.24,7.094,8.21-7.761a.5.5,0,0,1,.687.727L51.41,26.071a.5.5,0,0,1-.343.137Z" fill="#323c6b"/>
      <path id="Path_237" data-name="Path 237" d="M59.031,22.952a.519.519,0,0,1-.067,0,.5.5,0,0,1-.429-.562l.573-4.266-4.409.447a.5.5,0,1,1-.1-1l5.04-.511a.509.509,0,0,1,.41.15.5.5,0,0,1,.136.414l-.657,4.894A.5.5,0,0,1,59.031,22.952Z" fill="#323c6b"/>
    </g>
    <path id="Path_238" data-name="Path 238" d="M21.066,52.292H54.433v5.25H21.066Z" fill="#e7aa6c"/>
    <path id="Path_239" data-name="Path 239" d="M54.434,58.042H21.066a.5.5,0,0,1-.5-.5v-5.25a.5.5,0,0,1,.5-.5H54.434a.5.5,0,0,1,.5.5v5.25A.5.5,0,0,1,54.434,58.042Zm-32.867-1H53.934v-4.25H21.566Z" fill="#323c6b"/>
    <path id="Path_240" data-name="Path 240" d="M25.623,57.542,20.959,69.7a2.687,2.687,0,1,0,5.018,1.925l5.4-14.083Z" fill="#e7aa6c"/>
    <path id="Path_241" data-name="Path 241" d="M23.456,73.848a3.147,3.147,0,0,1-.873-.124,3.188,3.188,0,0,1-2.09-4.2l4.664-12.158a.5.5,0,0,1,.467-.321h5.757a.5.5,0,0,1,.467.679L26.444,71.8a3.211,3.211,0,0,1-2.988,2.048Zm2.511-15.806L21.426,69.879a2.187,2.187,0,0,0,4.085,1.566l5.141-13.4Z" fill="#323c6b"/>
    <path id="Path_242" data-name="Path 242" d="M49.877,57.542H44.121l5.4,14.083a2.688,2.688,0,1,0,5.02-1.925Z" fill="#e7aa6c"/>
    <path id="Path_243" data-name="Path 243" d="M52.044,73.848A3.211,3.211,0,0,1,49.056,71.8l-5.4-14.083a.5.5,0,0,1,.467-.679H49.88a.5.5,0,0,1,.467.321l4.664,12.158a3.188,3.188,0,0,1-2.09,4.2,3.147,3.147,0,0,1-.877.131Zm-7.2-15.806,5.141,13.4a2.187,2.187,0,0,0,4.085-1.566L49.534,58.042Z" fill="#323c6b"/>
    <path id="Path_244" data-name="Path 244" d="M30.77,33.157a9.036,9.036,0,1,1-10.55-13.41l2.94,8.54Z" fill="#27ccbc"/>
    <path id="Path_245" data-name="Path 245" d="M23.16,37.827a9.535,9.535,0,0,1-3.1-18.553.5.5,0,0,1,.634.311l2.884,8.375,7.463,4.776a.5.5,0,0,1,.151.691,9.506,9.506,0,0,1-8.032,4.4ZM19.914,20.4A8.536,8.536,0,1,0,30.067,33.3l-7.176-4.593a.5.5,0,0,1-.2-.258Z" fill="#323c6b"/>
    <path id="Path_246" data-name="Path 246" d="M32.2,28.287a9.019,9.019,0,0,1-1.42,4.87h-.01l-7.61-4.87,8.64-2.65a8.949,8.949,0,0,1,.4,2.65Z" fill="#fcd462"/>
    <path id="Path_247" data-name="Path 247" d="M30.78,33.657a.533.533,0,0,1-.28-.079l-7.61-4.87a.5.5,0,0,1,.123-.9l8.64-2.65a.5.5,0,0,1,.624.33,9.435,9.435,0,0,1,.423,2.8,9.535,9.535,0,0,1-1.5,5.139A.5.5,0,0,1,30.78,33.657Zm-6.44-5.209,6.273,4.015A8.541,8.541,0,0,0,31.7,28.287a8.449,8.449,0,0,0-.245-2.022Z" fill="#323c6b"/>
    <path id="Path_248" data-name="Path 248" d="M31.8,25.637l-8.64,2.65-2.94-8.54a8.686,8.686,0,0,1,2.94-.5,9.035,9.035,0,0,1,8.64,6.391Z" fill="#fe7058"/>
    <path id="Path_249" data-name="Path 249" d="M23.16,28.787a.5.5,0,0,1-.473-.337l-2.94-8.54a.5.5,0,0,1,.3-.633,9.189,9.189,0,0,1,3.109-.529,9.48,9.48,0,0,1,9.118,6.744.5.5,0,0,1-.332.624l-8.64,2.65a.494.494,0,0,1-.142.021Zm-2.3-8.721,2.617,7.6,7.687-2.358a8.482,8.482,0,0,0-8-5.562,8.276,8.276,0,0,0-2.306.319Z" fill="#323c6b"/>
    <path id="Path_250" data-name="Path 250" d="M70,40.75a.5.5,0,0,1-.5-.5V30.2a.5.5,0,0,1,1,0V40.25A.5.5,0,0,1,70,40.75Z" fill="#323c6b"/>
    <path id="Path_251" data-name="Path 251" d="M70,28.2a.5.5,0,0,1-.5-.5v-.969a.5.5,0,0,1,1,0V27.7A.5.5,0,0,1,70,28.2Z" fill="#323c6b"/>
    <path id="Path_252" data-name="Path 252" d="M1.333,6.417a.5.5,0,0,1-.5-.5V.855a.5.5,0,0,1,.5-.5H7a.5.5,0,1,1,0,1H1.833V5.917a.5.5,0,0,1-.5.5Z" fill="#323c6b"/>
    <path id="Path_253" data-name="Path 253" d="M11.375,1.355H10a.5.5,0,0,1,0-1h1.375a.5.5,0,1,1,0,1Z" fill="#323c6b"/>
    <path id="Path_254" data-name="Path 254" d="M4.333,46.75H71.166V52.8H4.333Z" fill="#9297ab"/>
    <path id="Path_255" data-name="Path 255" d="M71.17,3.857V11.3h-3V6.827H4.33V3.857Z" fill="#84879c"/>
    <path id="Path_256" data-name="Path 256" d="M68.17,46.747h3V52.8h-3Z" fill="#84879c"/>
    <path id="Path_257" data-name="Path 257" d="M63.995,11.3h3V46.75h-3Z" fill="#e1e6e9"/>
    <path id="Path_258" data-name="Path 258" d="M71.167,11.8H4.333a.5.5,0,0,1-.5-.5V3.855a.5.5,0,0,1,.5-.5H71.167a.5.5,0,0,1,.5.5V11.3A.5.5,0,0,1,71.167,11.8Zm-66.333-1H70.667V4.355H4.833Z" fill="#323c6b"/>
    <path id="Path_259" data-name="Path 259" d="M71.167,53.3H4.333a.5.5,0,0,1-.5-.5V46.75a.5.5,0,0,1,.5-.5H71.167a.5.5,0,0,1,.5.5V52.8A.5.5,0,0,1,71.167,53.3Zm-66.333-1H70.667V47.25H4.833Z" fill="#323c6b"/>
    <path id="Path_260" data-name="Path 260" d="M67,47.25H8.5a.5.5,0,0,1-.5-.5V11.3a.5.5,0,0,1,.5-.5H67a.5.5,0,0,1,.5.5V46.75A.5.5,0,0,1,67,47.25Zm-58-1H66.5V11.8H9Z" fill="#323c6b"/>
    <path id="Path_261" data-name="Path 261" d="M48.292,8.879H38.167a.65.65,0,1,1,0-1.3H48.292a.65.65,0,1,1,0,1.3Z" fill="#fff"/>
    <path id="Path_262" data-name="Path 262" d="M35.313,8.879h-.969a.65.65,0,1,1,0-1.3h.969a.65.65,0,1,1,0,1.3Z" fill="#fff"/>
  </g>
</svg>
