<svg xmlns="http://www.w3.org/2000/svg" width="71.566" height="72.652" viewBox="0 0 71.566 72.652">
  <g id="Group_10" data-name="Group 10" transform="translate(-413 -1607)">
    <path id="Path_229" data-name="Path 229" d="M3.906,0H63.659a3.906,3.906,0,0,1,3.906,3.906v47.2a3.906,3.906,0,0,1-3.906,3.906H3.906A3.906,3.906,0,0,1,0,51.11V3.906A3.906,3.906,0,0,1,3.906,0Z" transform="translate(416.5 1610.5)" fill="#89c5cd"/>
    <path id="Path_197" data-name="Path 197" d="M69.08,10.667V45.5h3.2V7.417a3.907,3.907,0,0,0-3.9-3.91H8.62a3.889,3.889,0,0,0-3.85,3.31,3.494,3.494,0,0,1,.65-.06H65.18a3.907,3.907,0,0,1,3.9,3.91Z" transform="translate(411.783 1606.992)" fill="#6eaaad"/>
    <path id="Path_198" data-name="Path 198" d="M4.717,45.624v9a3.9,3.9,0,0,0,3.9,3.9H68.381a3.9,3.9,0,0,0,3.9-3.9v-9Z" transform="translate(411.783 1606.992)" fill="#9297ab"/>
    <path id="Path_199" data-name="Path 199" d="M28.5,58.524H48.5v8.142H28.5Z" transform="translate(411.783 1606.992)" fill="#bbbbcd"/>
    <path id="Path_200" data-name="Path 200" d="M45.65,58.527H48.5v8.14H45.65Z" transform="translate(411.783 1606.992)" fill="#9297ab"/>
    <path id="Path_201" data-name="Path 201" d="M49.725,66.667H27.275a5.119,5.119,0,0,0-5.119,5.119v.375H54.844v-.375A5.119,5.119,0,0,0,49.725,66.667Z" transform="translate(411.783 1606.992)" fill="#9297ab"/>
    <path id="Path_202" data-name="Path 202" d="M54.84,71.787v.37H51.76v-.37a5.117,5.117,0,0,0-5.12-5.12h3.08a5.117,5.117,0,0,1,5.12,5.12Z" transform="translate(411.783 1606.992)" fill="#84879c"/>
    <circle id="Ellipse_91" data-name="Ellipse 91" cx="2.289" cy="2.289" r="2.289" transform="translate(447.994 1656.777)" fill="#d5d6db"/>
    <path id="Path_203" data-name="Path 203" d="M38.5,54.863a2.789,2.789,0,1,1,2.789-2.789A2.789,2.789,0,0,1,38.5,54.863Zm0-4.578a1.789,1.789,0,1,0,1.789,1.789A1.789,1.789,0,0,0,38.5,50.285Z" transform="translate(411.783 1606.992)" fill="#323c6b"/>
    <path id="Path_204" data-name="Path 204" d="M35.862,19.079a8.8,8.8,0,0,0-9.178,3.593,6.91,6.91,0,0,0-1.027,2.585,7.521,7.521,0,0,1,6.451-.856" transform="translate(411.783 1606.992)" fill="#fe7058"/>
    <path id="Path_205" data-name="Path 205" d="M25.658,25.757a.5.5,0,0,1-.492-.588,7.366,7.366,0,0,1,1.1-2.772A9.3,9.3,0,0,1,36,18.6a.5.5,0,1,1-.268.964A8.255,8.255,0,0,0,27.1,22.945a6.371,6.371,0,0,0-.655,1.3,8.166,8.166,0,0,1,5.813-.322.5.5,0,0,1-.3.953,7.064,7.064,0,0,0-6.021.794.5.5,0,0,1-.279.087Z" transform="translate(411.783 1606.992)" fill="#323c6b"/>
    <path id="Path_206" data-name="Path 206" d="M47.274,29.444a8.8,8.8,0,0,1-2.7,9.48,6.91,6.91,0,0,1-2.475,1.27,7.521,7.521,0,0,0,.233-6.5" transform="translate(411.783 1606.992)" fill="#fe7058"/>
    <path id="Path_207" data-name="Path 207" d="M42.1,40.694a.5.5,0,0,1-.44-.737,7.062,7.062,0,0,0,.213-6.07.5.5,0,0,1,.92-.392,8.169,8.169,0,0,1,.236,5.818,6.31,6.31,0,0,0,1.232-.778A8.253,8.253,0,0,0,46.8,29.624a.5.5,0,0,1,.934-.359,9.3,9.3,0,0,1-2.85,10.05,7.35,7.35,0,0,1-2.654,1.361.487.487,0,0,1-.134.018Z" transform="translate(411.783 1606.992)" fill="#323c6b"/>
    <path id="Path_208" data-name="Path 208" d="M36.587,36.171a4.955,4.955,0,0,1-2.636,3.344l-.11.056a3.5,3.5,0,0,0-1.928,3.17c-.059-.105-1.332-2.852-.64-3.957a3.744,3.744,0,0,1-1.948.678c-1.814.131-2.763,3.188-2.8,3.283-.045-.114-1.3-4.021,1.336-5.44,0,0,1.1-.644.734-1.574-.619-1.029-2.868.386-2.936.434a10,10,0,0,1,2.5-4.646,4.937,4.937,0,0,1,1.589-1.064Z" transform="translate(411.783 1606.992)" fill="#fcd462"/>
    <path id="Path_209" data-name="Path 209" d="M31.91,43.237a.493.493,0,0,1-.433-.252,9.1,9.1,0,0,1-.907-3.273,4.33,4.33,0,0,1-1.211.249c-1.025.074-1.886,1.552-2.349,2.91a.524.524,0,0,1-.468.356.487.487,0,0,1-.483-.3c-.017-.043-1.5-4.409,1.564-6.062.012-.008.709-.434.506-.951.01.03-.033-.018-.139-.042a3.993,3.993,0,0,0-2.05.706.507.507,0,0,1-.536.014.5.5,0,0,1-.244-.474,10.415,10.415,0,0,1,2.646-4.952,5.4,5.4,0,0,1,1.751-1.172.5.5,0,0,1,.513.078l6.837,5.716a.5.5,0,0,1,.167.493,5.443,5.443,0,0,1-2.9,3.682l-.118.06a3,3,0,0,0-1.645,2.69.5.5,0,0,1-.363.506.525.525,0,0,1-.138.018Zm-4.072-8.379a1.712,1.712,0,0,1,.35.034,1.245,1.245,0,0,1,.835.581,1.861,1.861,0,0,1-.91,2.263,3.254,3.254,0,0,0-1.4,3.324,3.528,3.528,0,0,1,2.575-2.1A3.254,3.254,0,0,0,31,38.36a.5.5,0,0,1,.7.683,2.894,2.894,0,0,0,.092,1.941,3.714,3.714,0,0,1,1.837-1.871l.325.4-.224-.447a4.453,4.453,0,0,0,2.3-2.716l-6.353-5.311a4.42,4.42,0,0,0-1.155.829,9.3,9.3,0,0,0-2.048,3.313,3.755,3.755,0,0,1,1.368-.323Z" transform="translate(411.783 1606.992)" fill="#323c6b"/>
    <path id="Path_210" data-name="Path 210" d="M34.609,34.518a2.068,2.068,0,0,1-1.1,1.4l-.046.023a1.461,1.461,0,0,0-.8,1.323c-.025-.044-.556-1.19-.267-1.651a1.562,1.562,0,0,1-.813.283c-.757.055-1.153,1.33-1.169,1.37-.019-.048-.54-1.678.558-2.27,0,0,.459-.269.306-.657-.258-.43-1.2.161-1.226.181A4.173,4.173,0,0,1,31.1,32.581a2.06,2.06,0,0,1,.663-.444Z" transform="translate(411.783 1606.992)" fill="#fe7058"/>
    <g id="Group_8" data-name="Group 8" transform="translate(411.783 1606.992)">
      <path id="Path_211" data-name="Path 211" d="M67,62.024H58.813a.5.5,0,0,1,0-1H67a.5.5,0,0,1,0,1Z" fill="#323c6b"/>
      <path id="Path_212" data-name="Path 212" d="M56.031,62.024h-.74a.5.5,0,0,1,0-1h.74a.5.5,0,0,1,0,1Z" fill="#323c6b"/>
      <path id="Path_213" data-name="Path 213" d="M1.717,7.915a.5.5,0,0,1-.5-.5A7.414,7.414,0,0,1,8.624.008h.293a.5.5,0,0,1,0,1H8.624A6.414,6.414,0,0,0,2.217,7.415a.5.5,0,0,1-.5.5Z" fill="#323c6b"/>
      <path id="Path_214" data-name="Path 214" d="M12.625,1.008H11.542a.5.5,0,1,1,0-1h1.083a.5.5,0,1,1,0,1Z" fill="#323c6b"/>
    </g>
    <path id="Path_215" data-name="Path 215" d="M28.818,29.661,31.5,28.2l7.472,6.427-.982,2.861Z" transform="translate(411.783 1606.992)" fill="#bbbbcd"/>
    <path id="Path_216" data-name="Path 216" d="M37.988,37.992a.5.5,0,0,1-.325-.12l-9.17-7.831a.5.5,0,0,1,.086-.82l2.681-1.457a.5.5,0,0,1,.565.061L39.3,34.252a.5.5,0,0,1,.147.541l-.982,2.86a.5.5,0,0,1-.341.32.507.507,0,0,1-.136.019ZM29.7,29.753l8.058,6.881.633-1.845-6.953-5.981Z" transform="translate(411.783 1606.992)" fill="#323c6b"/>
    <path id="Path_217" data-name="Path 217" d="M55.94,8.438a32.947,32.947,0,0,1-1.12,7.44,9.07,9.07,0,0,1-3.77-2.05,8.952,8.952,0,0,1-2.41-3.56,33.065,33.065,0,0,1,7.3-1.83Z" transform="translate(411.783 1606.992)" fill="#fe7058"/>
    <path id="Path_218" data-name="Path 218" d="M54.82,16.378a.517.517,0,0,1-.13-.017A9.555,9.555,0,0,1,50.713,14.2a9.4,9.4,0,0,1-2.543-3.759.5.5,0,0,1,.3-.64,33.258,33.258,0,0,1,7.42-1.86.516.516,0,0,1,.386.127.5.5,0,0,1,.164.372A33.153,33.153,0,0,1,55.3,16a.5.5,0,0,1-.484.374ZM49.3,10.564a8.587,8.587,0,0,0,5.168,4.685,34.441,34.441,0,0,0,.956-6.237A34.5,34.5,0,0,0,49.3,10.564Z" transform="translate(411.783 1606.992)" fill="#323c6b"/>
    <path id="Path_219" data-name="Path 219" d="M30.438,27.571a47.735,47.735,0,0,1,6.482-9.713,29.494,29.494,0,0,1,11.72-7.59,8.952,8.952,0,0,0,2.41,3.56,9.07,9.07,0,0,0,3.77,2.05,29.377,29.377,0,0,1-6.44,12.39,45.554,45.554,0,0,1-8.684,7.4Z" transform="translate(411.783 1606.992)" fill="#eeefee"/>
    <path id="Path_220" data-name="Path 220" d="M39.7,36.165a.5.5,0,0,1-.329-.124l-9.259-8.094a.5.5,0,0,1-.121-.595,47.908,47.908,0,0,1,6.562-9.83A30.241,30.241,0,0,1,48.469,9.8a.5.5,0,0,1,.641.3,8.406,8.406,0,0,0,2.277,3.361A8.557,8.557,0,0,0,54.95,15.4a.5.5,0,0,1,.35.6,30.14,30.14,0,0,1-6.55,12.6,46.3,46.3,0,0,1-8.794,7.487A.5.5,0,0,1,39.7,36.165Zm-8.64-8.717,8.69,7.6a46.117,46.117,0,0,0,8.263-7.111,28.92,28.92,0,0,0,6.2-11.714,9.583,9.583,0,0,1-5.856-5.311A29.011,29.011,0,0,0,37.29,18.195a47.756,47.756,0,0,0-6.234,9.253Z" transform="translate(411.783 1606.992)" fill="#323c6b"/>
    <circle id="Ellipse_92" data-name="Ellipse 92" cx="2.594" cy="2.594" r="2.594" transform="matrix(0.672, -0.74, 0.74, 0.672, 454.847, 1625.537)" fill="#05afd6"/>
    <path id="Path_221" data-name="Path 221" d="M46.747,21.458a3.093,3.093,0,1,1,2.292-1.012A3.093,3.093,0,0,1,46.747,21.458Zm0-5.186a2.093,2.093,0,1,0,1.407.543,2.093,2.093,0,0,0-1.407-.543Z" transform="translate(411.783 1606.992)" fill="#323c6b"/>
    <path id="Path_222" data-name="Path 222" d="M68.376,59.024H8.624a4.411,4.411,0,0,1-4.406-4.406V7.415A4.411,4.411,0,0,1,8.624,3.008H68.376a4.411,4.411,0,0,1,4.406,4.406v47.2a4.411,4.411,0,0,1-4.405,4.41ZM8.624,4.008A3.41,3.41,0,0,0,5.217,7.415v47.2a3.41,3.41,0,0,0,3.406,3.406H68.376a3.41,3.41,0,0,0,3.406-3.406V7.415a3.41,3.41,0,0,0-3.406-3.406Z" transform="translate(411.783 1606.992)" fill="#323c6b"/>
    <path id="Path_223" data-name="Path 223" d="M69.08,46V57.867a4.052,4.052,0,0,1-.05.6,3.9,3.9,0,0,0,3.25-3.85V46Z" transform="translate(411.783 1606.992)" fill="#84879c"/>
    <path id="Path_224" data-name="Path 224" d="M68.381,59.024H8.619a4.407,4.407,0,0,1-4.4-4.4v-9a.5.5,0,0,1,.5-.5H72.283a.5.5,0,0,1,.5.5v9a4.407,4.407,0,0,1-4.4,4.4ZM5.217,46.124v8.5a3.4,3.4,0,0,0,3.4,3.4H68.381a3.405,3.405,0,0,0,3.4-3.4v-8.5Z" transform="translate(411.783 1606.992)" fill="#323c6b"/>
    <path id="Path_225" data-name="Path 225" d="M54.844,72.66H22.157a.5.5,0,0,1-.5-.5v-.375a5.625,5.625,0,0,1,5.619-5.619H49.725a5.625,5.625,0,0,1,5.619,5.619v.375a.5.5,0,0,1-.5.5Zm-32.186-1H54.342a4.625,4.625,0,0,0-4.618-4.494H27.275a4.625,4.625,0,0,0-4.617,4.494Z" transform="translate(411.783 1606.992)" fill="#323c6b"/>
    <path id="Path_226" data-name="Path 226" d="M48.5,67.167h-20a.5.5,0,0,1-.5-.5V58.524a.5.5,0,0,1,.5-.5h20a.5.5,0,0,1,.5.5v8.142a.5.5,0,0,1-.5.5Zm-19.5-1H48V59.024H29Z" transform="translate(411.783 1606.992)" fill="#323c6b"/>
    <path id="Path_227" data-name="Path 227" d="M15.221,43.137h-4.3A3.029,3.029,0,0,1,7.9,40.111v-2.1a.65.65,0,1,1,1.3,0v2.1a1.728,1.728,0,0,0,1.726,1.726h4.3a.65.65,0,1,1,0,1.3Z" transform="translate(411.783 1606.992)" fill="#fff"/>
    <path id="Path_228" data-name="Path 228" d="M18.888,43.137h-.846a.65.65,0,0,1,0-1.3h.846a.65.65,0,1,1,0,1.3Z" transform="translate(411.783 1606.992)" fill="#fff"/>
  </g>
</svg>
