<svg xmlns="http://www.w3.org/2000/svg" width="26.8" height="26.8" viewBox="0 0 26.8 26.8">
  <path id="Icon_awesome-dribbble" data-name="Icon awesome-dribbble" d="M13.666.266a13.4,13.4,0,1,0,13.4,13.4A13.415,13.415,0,0,0,13.666.266Zm8.86,6.18a11.391,11.391,0,0,1,2.585,7.13,26.748,26.748,0,0,0-7.97-.368c-.311-.759-.6-1.426-1.006-2.249A15.247,15.247,0,0,0,22.526,6.445ZM21.253,5.122a12.923,12.923,0,0,1-6,4.135,61.1,61.1,0,0,0-4.271-6.7A11.416,11.416,0,0,1,21.253,5.122ZM8.8,3.325a73.032,73.032,0,0,1,4.244,6.619A42.693,42.693,0,0,1,2.462,11.339,11.488,11.488,0,0,1,8.8,3.325ZM2.22,13.683c0-.117,0-.234.006-.35A42.221,42.221,0,0,0,13.989,11.7c.328.641.641,1.292.928,1.942a17.729,17.729,0,0,0-9.755,7.689A11.4,11.4,0,0,1,2.22,13.683Zm4.42,9.03c1.2-2.444,4.44-5.6,9.055-7.173a47.577,47.577,0,0,1,2.442,8.68,11.423,11.423,0,0,1-11.5-1.507Zm13.421.459a49.4,49.4,0,0,0-2.224-8.161,16.8,16.8,0,0,1,7.129.489A11.466,11.466,0,0,1,20.061,23.171Z" transform="translate(-0.266 -0.266)" fill="#fff"/>
</svg>
