<svg id="Icon_ionic-logo-instagram" data-name="Icon ionic-logo-instagram" xmlns="http://www.w3.org/2000/svg" width="26.8" height="26.8" viewBox="0 0 26.8 26.8">
  <path id="Path_332" data-name="Path 332" d="M21.109,4.358a5.6,5.6,0,0,1,5.583,5.583V21.109a5.6,5.6,0,0,1-5.583,5.583H9.942a5.6,5.6,0,0,1-5.583-5.583V9.942A5.6,5.6,0,0,1,9.942,4.358H21.109m0-2.233H9.942A7.84,7.84,0,0,0,2.125,9.942V21.109a7.84,7.84,0,0,0,7.817,7.817H21.109a7.84,7.84,0,0,0,7.817-7.817V9.942a7.84,7.84,0,0,0-7.817-7.817Z" transform="translate(-2.125 -2.125)" fill="#fff"/>
  <path id="Path_333" data-name="Path 333" d="M12.831,7.6a1.675,1.675,0,1,1,1.675-1.675A1.671,1.671,0,0,1,12.831,7.6Z" transform="translate(7.827 0.217)" fill="#fff"/>
  <path id="Path_334" data-name="Path 334" d="M12.013,7.546a4.467,4.467,0,1,1-4.467,4.467,4.471,4.471,0,0,1,4.467-4.467m0-2.233a6.7,6.7,0,1,0,6.7,6.7,6.7,6.7,0,0,0-6.7-6.7Z" transform="translate(1.388 1.388)" fill="#fff"/>
</svg>
