<svg xmlns="http://www.w3.org/2000/svg" width="24.207" height="24.206" viewBox="0 0 24.207 24.206">
  <path id="Icon_awesome-linkedin-in" data-name="Icon awesome-linkedin-in" d="M5.418,24.206H.4V8.045H5.418ZM2.906,5.841A2.92,2.92,0,1,1,5.813,2.907,2.931,2.931,0,0,1,2.906,5.841ZM24.2,24.206H19.194V16.339c0-1.875-.038-4.279-2.609-4.279-2.609,0-3.009,2.037-3.009,4.144v8H8.562V8.045h4.813v2.2h.07a5.273,5.273,0,0,1,4.748-2.61c5.079,0,6.013,3.345,6.013,7.689v8.878Z" transform="translate(0 0)" fill="#fff"/>
</svg>
