<svg xmlns="http://www.w3.org/2000/svg" width="20.749" height="26.968" viewBox="0 0 20.749 26.968">
  <path id="Icon_awesome-pinterest-p" data-name="Icon awesome-pinterest-p" d="M11.023.216C5.479.216,0,3.912,0,9.893c0,3.8,2.14,5.965,3.436,5.965.535,0,.843-1.491.843-1.913,0-.5-1.281-1.572-1.281-3.663a7.3,7.3,0,0,1,7.586-7.424c3.68,0,6.4,2.091,6.4,5.933,0,2.869-1.151,8.251-4.879,8.251a2.4,2.4,0,0,1-2.5-2.367c0-2.042,1.426-4.02,1.426-6.127,0-3.577-5.074-2.929-5.074,1.394a6.348,6.348,0,0,0,.519,2.739c-.746,3.21-2.269,7.991-2.269,11.3,0,1.021.146,2.026.243,3.047.184.205.092.184.373.081,2.723-3.728,2.626-4.458,3.858-9.337a4.382,4.382,0,0,0,3.744,1.945c5.738,0,8.316-5.592,8.316-10.634C20.749,3.717,16.113.216,11.023.216Z" transform="translate(0 -0.216)" fill="#fff"/>
</svg>
