<svg xmlns="http://www.w3.org/2000/svg" width="27.665" height="22.469" viewBox="0 0 27.665 22.469">
  <path id="Icon_awesome-twitter" data-name="Icon awesome-twitter" d="M24.821,7.2c.018.246.018.492.018.737,0,7.5-5.7,16.132-16.132,16.132A16.023,16.023,0,0,1,0,21.52a11.73,11.73,0,0,0,1.369.07,11.355,11.355,0,0,0,7.039-2.422,5.68,5.68,0,0,1-5.3-3.932,7.15,7.15,0,0,0,1.071.088A6,6,0,0,0,5.67,15.13,5.671,5.671,0,0,1,1.123,9.566V9.5a5.71,5.71,0,0,0,2.563.72A5.678,5.678,0,0,1,1.931,2.632,16.116,16.116,0,0,0,13.622,8.565a6.4,6.4,0,0,1-.14-1.3,5.675,5.675,0,0,1,9.813-3.879,11.163,11.163,0,0,0,3.6-1.369A5.655,5.655,0,0,1,24.4,5.142a11.366,11.366,0,0,0,3.265-.878A12.188,12.188,0,0,1,24.821,7.2Z" transform="translate(0 -1.597)" fill="#fff"/>
</svg>
