<svg id="Group_1" data-name="Group 1" xmlns="http://www.w3.org/2000/svg" width="694.028" height="472.998" viewBox="0 0 694.028 472.998">
  <ellipse id="Ellipse_1" data-name="Ellipse 1" cx="6.146" cy="6.146" rx="6.146" ry="6.146" transform="translate(530.247)" fill="#e6e6e6"/>
  <ellipse id="Ellipse_2" data-name="Ellipse 2" cx="6.146" cy="6.146" rx="6.146" ry="6.146" transform="translate(499.137)" fill="#e6e6e6"/>
  <ellipse id="Ellipse_3" data-name="Ellipse 3" cx="6.146" cy="6.146" rx="6.146" ry="6.146" transform="translate(468.027)" fill="#e6e6e6"/>
  <ellipse id="Ellipse_4" data-name="Ellipse 4" cx="6.146" cy="6.146" rx="6.146" ry="6.146" transform="translate(436.917)" fill="#e6e6e6"/>
  <ellipse id="Ellipse_5" data-name="Ellipse 5" cx="6.146" cy="6.146" rx="6.146" ry="6.146" transform="translate(405.808)" fill="#e6e6e6"/>
  <ellipse id="Ellipse_6" data-name="Ellipse 6" cx="6.146" cy="6.146" rx="6.146" ry="6.146" transform="translate(530.247 31.5)" fill="#e6e6e6"/>
  <ellipse id="Ellipse_7" data-name="Ellipse 7" cx="6.146" cy="6.146" rx="6.146" ry="6.146" transform="translate(499.137 31.5)" fill="#e6e6e6"/>
  <ellipse id="Ellipse_8" data-name="Ellipse 8" cx="6.146" cy="6.146" rx="6.146" ry="6.146" transform="translate(468.027 31.5)" fill="#e6e6e6"/>
  <ellipse id="Ellipse_9" data-name="Ellipse 9" cx="6.146" cy="6.146" rx="6.146" ry="6.146" transform="translate(436.917 31.5)" fill="#6c63ff"/>
  <ellipse id="Ellipse_10" data-name="Ellipse 10" cx="6.146" cy="6.146" rx="6.146" ry="6.146" transform="translate(405.808 31.5)" fill="#e6e6e6"/>
  <ellipse id="Ellipse_11" data-name="Ellipse 11" cx="6.146" cy="6.146" rx="6.146" ry="6.146" transform="translate(343.588 31.5)" fill="#e6e6e6"/>
  <ellipse id="Ellipse_12" data-name="Ellipse 12" cx="6.146" cy="6.146" rx="6.146" ry="6.146" transform="translate(530.247 63.001)" fill="#e6e6e6"/>
  <ellipse id="Ellipse_13" data-name="Ellipse 13" cx="6.146" cy="6.146" rx="6.146" ry="6.146" transform="translate(499.137 63.001)" fill="#e6e6e6"/>
  <ellipse id="Ellipse_14" data-name="Ellipse 14" cx="6.146" cy="6.146" rx="6.146" ry="6.146" transform="translate(468.027 63.001)" fill="#e6e6e6"/>
  <ellipse id="Ellipse_15" data-name="Ellipse 15" cx="6.146" cy="6.146" rx="6.146" ry="6.146" transform="translate(436.917 63.001)" fill="#e6e6e6"/>
  <ellipse id="Ellipse_16" data-name="Ellipse 16" cx="6.146" cy="6.146" rx="6.146" ry="6.146" transform="translate(405.808 63.001)" fill="#e6e6e6"/>
  <ellipse id="Ellipse_17" data-name="Ellipse 17" cx="6.146" cy="6.146" rx="6.146" ry="6.146" transform="translate(530.247 94.501)" fill="#e6e6e6"/>
  <ellipse id="Ellipse_18" data-name="Ellipse 18" cx="6.146" cy="6.146" rx="6.146" ry="6.146" transform="translate(499.137 94.501)" fill="#e6e6e6"/>
  <ellipse id="Ellipse_19" data-name="Ellipse 19" cx="6.146" cy="6.146" rx="6.146" ry="6.146" transform="translate(468.027 94.501)" fill="#e6e6e6"/>
  <ellipse id="Ellipse_20" data-name="Ellipse 20" cx="6.146" cy="6.146" rx="6.146" ry="6.146" transform="translate(436.917 94.501)" fill="#e6e6e6"/>
  <ellipse id="Ellipse_21" data-name="Ellipse 21" cx="6.146" cy="6.146" rx="6.146" ry="6.146" transform="translate(405.808 94.501)" fill="#e6e6e6"/>
  <ellipse id="Ellipse_22" data-name="Ellipse 22" cx="6.146" cy="6.146" rx="6.146" ry="6.146" transform="translate(374.698 94.501)" fill="#e6e6e6"/>
  <ellipse id="Ellipse_23" data-name="Ellipse 23" cx="6.146" cy="6.146" rx="6.146" ry="6.146" transform="translate(343.588 94.501)" fill="#e6e6e6"/>
  <ellipse id="Ellipse_24" data-name="Ellipse 24" cx="6.146" cy="6.146" rx="6.146" ry="6.146" transform="translate(312.478 94.501)" fill="#e6e6e6"/>
  <ellipse id="Ellipse_25" data-name="Ellipse 25" cx="6.146" cy="6.146" rx="6.146" ry="6.146" transform="translate(281.368 94.501)" fill="#e6e6e6"/>
  <ellipse id="Ellipse_26" data-name="Ellipse 26" cx="6.146" cy="6.146" rx="6.146" ry="6.146" transform="translate(250.258 94.501)" fill="#e6e6e6"/>
  <ellipse id="Ellipse_27" data-name="Ellipse 27" cx="6.146" cy="6.146" rx="6.146" ry="6.146" transform="translate(405.808 126.002)" fill="#e6e6e6"/>
  <ellipse id="Ellipse_28" data-name="Ellipse 28" cx="6.146" cy="6.146" rx="6.146" ry="6.146" transform="translate(374.698 126.002)" fill="#6c63ff"/>
  <ellipse id="Ellipse_29" data-name="Ellipse 29" cx="6.146" cy="6.146" rx="6.146" ry="6.146" transform="translate(343.588 126.002)" fill="#e6e6e6"/>
  <ellipse id="Ellipse_30" data-name="Ellipse 30" cx="6.146" cy="6.146" rx="6.146" ry="6.146" transform="translate(312.478 126.002)" fill="#e6e6e6"/>
  <ellipse id="Ellipse_31" data-name="Ellipse 31" cx="6.146" cy="6.146" rx="6.146" ry="6.146" transform="translate(281.368 126.002)" fill="#e6e6e6"/>
  <ellipse id="Ellipse_32" data-name="Ellipse 32" cx="6.146" cy="6.146" rx="6.146" ry="6.146" transform="translate(250.258 126.002)" fill="#e6e6e6"/>
  <ellipse id="Ellipse_33" data-name="Ellipse 33" cx="6.146" cy="6.146" rx="6.146" ry="6.146" transform="translate(405.808 157.502)" fill="#e6e6e6"/>
  <ellipse id="Ellipse_34" data-name="Ellipse 34" cx="6.146" cy="6.146" rx="6.146" ry="6.146" transform="translate(374.698 157.502)" fill="#e6e6e6"/>
  <ellipse id="Ellipse_35" data-name="Ellipse 35" cx="6.146" cy="6.146" rx="6.146" ry="6.146" transform="translate(343.588 157.502)" fill="#e6e6e6"/>
  <ellipse id="Ellipse_36" data-name="Ellipse 36" cx="6.146" cy="6.146" rx="6.146" ry="6.146" transform="translate(312.478 157.502)" fill="#e6e6e6"/>
  <ellipse id="Ellipse_37" data-name="Ellipse 37" cx="6.146" cy="6.146" rx="6.146" ry="6.146" transform="translate(281.368 157.502)" fill="#6c63ff"/>
  <ellipse id="Ellipse_38" data-name="Ellipse 38" cx="6.146" cy="6.146" rx="6.146" ry="6.146" transform="translate(250.258 157.502)" fill="#e6e6e6"/>
  <ellipse id="Ellipse_39" data-name="Ellipse 39" cx="6.146" cy="6.146" rx="6.146" ry="6.146" transform="translate(405.808 189.003)" fill="#e6e6e6"/>
  <ellipse id="Ellipse_40" data-name="Ellipse 40" cx="6.146" cy="6.146" rx="6.146" ry="6.146" transform="translate(374.698 189.003)" fill="#e6e6e6"/>
  <ellipse id="Ellipse_41" data-name="Ellipse 41" cx="6.146" cy="6.146" rx="6.146" ry="6.146" transform="translate(343.588 189.003)" fill="#e6e6e6"/>
  <ellipse id="Ellipse_42" data-name="Ellipse 42" cx="6.146" cy="6.146" rx="6.146" ry="6.146" transform="translate(312.478 189.003)" fill="#e6e6e6"/>
  <ellipse id="Ellipse_43" data-name="Ellipse 43" cx="6.146" cy="6.146" rx="6.146" ry="6.146" transform="translate(281.368 189.003)" fill="#e6e6e6"/>
  <ellipse id="Ellipse_44" data-name="Ellipse 44" cx="6.146" cy="6.146" rx="6.146" ry="6.146" transform="translate(250.258 189.003)" fill="#e6e6e6"/>
  <ellipse id="Ellipse_45" data-name="Ellipse 45" cx="6.146" cy="6.146" rx="6.146" ry="6.146" transform="translate(530.247 220.503)" fill="#e6e6e6"/>
  <ellipse id="Ellipse_46" data-name="Ellipse 46" cx="6.146" cy="6.146" rx="6.146" ry="6.146" transform="translate(499.137 220.503)" fill="#e6e6e6"/>
  <ellipse id="Ellipse_47" data-name="Ellipse 47" cx="6.146" cy="6.146" rx="6.146" ry="6.146" transform="translate(468.027 220.503)" fill="#e6e6e6"/>
  <ellipse id="Ellipse_48" data-name="Ellipse 48" cx="6.146" cy="6.146" rx="6.146" ry="6.146" transform="translate(436.917 220.503)" fill="#e6e6e6"/>
  <ellipse id="Ellipse_49" data-name="Ellipse 49" cx="6.146" cy="6.146" rx="6.146" ry="6.146" transform="translate(405.808 220.503)" fill="#e6e6e6"/>
  <ellipse id="Ellipse_50" data-name="Ellipse 50" cx="6.146" cy="6.146" rx="6.146" ry="6.146" transform="translate(374.698 220.503)" fill="#e6e6e6"/>
  <ellipse id="Ellipse_51" data-name="Ellipse 51" cx="6.146" cy="6.146" rx="6.146" ry="6.146" transform="translate(343.588 220.503)" fill="#e6e6e6"/>
  <ellipse id="Ellipse_52" data-name="Ellipse 52" cx="6.146" cy="6.146" rx="6.146" ry="6.146" transform="translate(312.478 220.503)" fill="#e6e6e6"/>
  <ellipse id="Ellipse_53" data-name="Ellipse 53" cx="6.146" cy="6.146" rx="6.146" ry="6.146" transform="translate(281.368 220.503)" fill="#e6e6e6"/>
  <ellipse id="Ellipse_54" data-name="Ellipse 54" cx="6.146" cy="6.146" rx="6.146" ry="6.146" transform="translate(250.258 220.503)" fill="#e6e6e6"/>
  <ellipse id="Ellipse_55" data-name="Ellipse 55" cx="6.146" cy="6.146" rx="6.146" ry="6.146" transform="translate(530.251 252.003)" fill="#e6e6e6"/>
  <ellipse id="Ellipse_56" data-name="Ellipse 56" cx="6.146" cy="6.146" rx="6.146" ry="6.146" transform="translate(499.137 252.004)" fill="#e6e6e6"/>
  <ellipse id="Ellipse_57" data-name="Ellipse 57" cx="6.146" cy="6.146" rx="6.146" ry="6.146" transform="translate(530.251 283.503)" fill="#e6e6e6"/>
  <ellipse id="Ellipse_58" data-name="Ellipse 58" cx="6.146" cy="6.146" rx="6.146" ry="6.146" transform="translate(499.137 283.504)" fill="#e6e6e6"/>
  <ellipse id="Ellipse_59" data-name="Ellipse 59" cx="6.146" cy="6.146" rx="6.146" ry="6.146" transform="translate(436.917 283.504)" fill="#e6e6e6"/>
  <path id="Path_1" data-name="Path 1" d="M566.8,260.655H810.352a4.515,4.515,0,0,0,4.51-4.51V195.731a4.516,4.516,0,0,0-4.51-4.51H566.8a4.515,4.515,0,0,0-4.51,4.51v60.414A4.515,4.515,0,0,0,566.8,260.655Zm243.547-67.63a2.709,2.709,0,0,1,2.706,2.706v60.414a2.709,2.709,0,0,1-2.706,2.706H566.8a2.709,2.709,0,0,1-2.706-2.706V195.731a2.709,2.709,0,0,1,2.706-2.706Z" transform="translate(-433.836 -188.147)" fill="#e6e6e6"/>
  <ellipse id="Ellipse_60" data-name="Ellipse 60" cx="18.943" cy="18.943" rx="18.943" ry="18.943" transform="translate(326.002 18.849)" fill="#6c63ff"/>
  <path id="Path_2" data-name="Path 2" d="M734.339,215.708a3.157,3.157,0,1,1,0,6.314H650.451a3.157,3.157,0,0,1,0-6.314Z" transform="translate(-433.143 -190.546)" fill="#e6e6e6"/>
  <path id="Path_3" data-name="Path 3" d="M799.285,236.708a3.157,3.157,0,1,1,0,6.314H650.451a3.157,3.157,0,0,1,0-6.314Z" transform="translate(-498.088 -192.603)" fill="#e6e6e6"/>
  <path id="Path_4" data-name="Path 4" d="M219.8,396.655H463.352a4.515,4.515,0,0,0,4.51-4.51V331.731a4.515,4.515,0,0,0-4.51-4.51H219.8a4.516,4.516,0,0,0-4.51,4.51v60.414A4.515,4.515,0,0,0,219.8,396.655Zm243.547-67.63a2.709,2.709,0,0,1,2.706,2.706v60.414a2.709,2.709,0,0,1-2.706,2.706H219.8a2.709,2.709,0,0,1-2.706-2.706V331.731a2.709,2.709,0,0,1,2.706-2.706Z" transform="translate(226.167 -201.471)" fill="#e6e6e6"/>
  <ellipse id="Ellipse_61" data-name="Ellipse 61" cx="18.943" cy="18.943" rx="18.943" ry="18.943" transform="translate(639.005 141.524)" fill="#6c63ff"/>
  <path id="Path_5" data-name="Path 5" d="M390.948,351.708a3.157,3.157,0,0,1,0,6.314h-87.5a3.157,3.157,0,0,1,0-6.314Z" transform="translate(223.252 -203.87)" fill="#e6e6e6"/>
  <path id="Path_6" data-name="Path 6" d="M452.285,372.708a3.157,3.157,0,0,1,0,6.314H303.451a3.157,3.157,0,1,1,0-6.314Z" transform="translate(161.914 -205.928)" fill="#e6e6e6"/>
  <path id="Path_7" data-name="Path 7" d="M463.8,543.655H707.352a4.516,4.516,0,0,0,4.51-4.51V478.731a4.515,4.515,0,0,0-4.51-4.51H463.8a4.515,4.515,0,0,0-4.51,4.51v60.414a4.515,4.515,0,0,0,4.51,4.51Zm243.547-67.63a2.709,2.709,0,0,1,2.706,2.706v60.414a2.709,2.709,0,0,1-2.706,2.706H463.8a2.709,2.709,0,0,1-2.706-2.706V478.731a2.709,2.709,0,0,1,2.706-2.706Z" transform="translate(-237.927 -215.874)" fill="#3f3d56"/>
  <ellipse id="Ellipse_62" data-name="Ellipse 62" cx="18.943" cy="18.943" rx="18.943" ry="18.943" transform="translate(418.911 274.122)" fill="#6c63ff"/>
  <path id="Path_8" data-name="Path 8" d="M627.731,498.708a3.157,3.157,0,1,1,0,6.314h-80.28a3.157,3.157,0,1,1,0-6.314Z" transform="translate(-233.626 -218.273)" fill="#e6e6e6"/>
  <path id="Path_9" data-name="Path 9" d="M696.285,519.708a3.157,3.157,0,0,1,0,6.314H547.451a3.157,3.157,0,1,1,0-6.314Z" transform="translate(-302.18 -220.33)" fill="#e6e6e6"/>
  <path id="Path_10" data-name="Path 10" d="M819.849,520.238c10.577,31.731,53.846-1.923,53.846-1.923L862.157,398.123c-17.308-13.462-35.577-1.923-35.577-1.923Z" transform="translate(-724.99 -207.779)" fill="#e6e6e6"/>
  <path id="Path_11" data-name="Path 11" d="M676.475,464.458l-14.744.155,3.683,42.5h11.059Z" transform="translate(-579.344 -45.506)" fill="#ffb8b8"/>
  <path id="Path_12" data-name="Path 12" d="M909.557,695.555H887.779A13.9,13.9,0,0,0,873.9,709.434v.451h35.658Z" transform="translate(-809.608 -237.559)" fill="#2f2e41"/>
  <path id="Path_13" data-name="Path 13" d="M599.327,464.458h16.321l-5.261,42.655H599.329Z" transform="translate(-462.228 -45.506)" fill="#ffb8b8"/>
  <path id="Path_14" data-name="Path 14" d="M831.967,709.885v-.451a13.879,13.879,0,0,0-13.879-13.878H796.309v14.331Z" transform="translate(-662.028 -237.559)" fill="#2f2e41"/>
  <path id="Path_15" data-name="Path 15" d="M834.569,674.525l19.315-112.593,17.9,111.142,18.131,1.007,4.835-148.912-.364-.081c-3-.671-73.548-16.167-85.114,6l-.059.112,9.653,143.831Z" transform="translate(-736.443 -220.28)" fill="#2f2e41"/>
  <ellipse id="Ellipse_63" data-name="Ellipse 63" cx="22.155" cy="22.155" rx="22.155" ry="22.155" transform="translate(96.442 131.95)" fill="#ffb8b8"/>
  <path id="Path_16" data-name="Path 16" d="M885.713,529.687c2.6-.719,4.468-3.7,5.889-9.386.245-.98,23.247-98.962,3.795-116.715l-4.484-12.455-6.136,4.091c-2.171.02-24.373.582-26.271,14.814-1.858,13.93-6.914,107.262-1.831,113.068a1.1,1.1,0,0,0,.836.423c5.151,0,6.715-5.716,7.082-7.537,1.225.507,4.873,2.371,10.868,8.367,3.714,3.714,6.626,5.494,9.031,5.494a4.54,4.54,0,0,0,1.22-.163Z" transform="translate(-785.729 -207.733)" fill="#2f2e41"/>
  <path id="Path_17" data-name="Path 17" d="M825.034,524.357c6-6,9.645-7.861,10.868-8.367.367,1.822,1.931,7.537,7.082,7.537a1.1,1.1,0,0,0,.836-.423c5.082-5.8.026-99.137-1.831-113.068-1.9-14.232-24.1-14.794-26.271-14.814l-6.136-4.091L805.1,403.588c-19.451,17.751,3.55,115.734,3.795,116.715,1.421,5.684,3.292,8.667,5.889,9.386a4.542,4.542,0,0,0,1.22.163C818.408,529.851,821.32,528.071,825.034,524.357Z" transform="translate(-676.971 -207.733)" fill="#2f2e41"/>
  <path id="Path_18" data-name="Path 18" d="M831.33,367.461a22.735,22.735,0,0,1,11.012-41.078c2.039-.2,4.236-.174,5.927-1.332,1.5-1.029,2.311-2.814,3.692-4a8.054,8.054,0,0,1,6.248-1.575,22.608,22.608,0,0,1,6.28,2.063c4.912,2.19,10.134,4.886,12.37,9.778a13.491,13.491,0,0,1-1.659,13.23,18.41,18.41,0,0,1-11.741,6.933,29.347,29.347,0,0,1-13.787-1.242c-2.924-.92-5.811-2.174-8.874-2.276a12.06,12.06,0,0,0-9.151,20.353" transform="translate(-731.025 -200.702)" fill="#2f2e41"/>
  <path id="Path_19" data-name="Path 19" d="M751.019,514.35a9.743,9.743,0,0,1-9.514-9.966l-12.92-21.8,9.983-9.151,13.61,21.477a9.743,9.743,0,0,1-1.158,19.439Z" transform="translate(-529.96 -215.797)" fill="#ffb8b8"/>
  <path id="Path_20" data-name="Path 20" d="M893.532,540.779a9.743,9.743,0,0,1-2.841-13.482l.495-25.335,13.305-2.524.261,25.425a9.743,9.743,0,0,1-11.22,15.916Z" transform="translate(-822.364 -218.344)" fill="#ffb8b8"/>
  <path id="Path_21" data-name="Path 21" d="M814.873,472.221l.151-.239-.149-.24c-19.379-31.119-60.056-69.991-60.465-70.38l-.129-.122-5.024-.052-5.431,13.53c1.691,3.253,47.262,66.849,53.28,71.067a4.151,4.151,0,0,0,3.324.626,8.75,8.75,0,0,0,2.818-1.2C808.8,481.771,814.589,472.671,814.873,472.221Z" transform="translate(-597.744 -208.718)" fill="#2f2e41"/>
  <path id="Path_22" data-name="Path 22" d="M909.248,508.567a4.123,4.123,0,0,0,2.442-2.241c2.9-6.77-9.534-92.279-10.065-95.916l-.1-.688-4.2,2.664-.041.181c-.124.546-12.369,55.021-9.05,91.218l.024.259.236.109c.506.234,10.705,4.918,17.5,4.918A9.194,9.194,0,0,0,909.248,508.567Z" transform="translate(-824.589 -209.554)" fill="#2f2e41"/>
  <path id="Path_23" data-name="Path 23" d="M717.608,711.991H957.547a.9.9,0,0,0,0-1.8H717.608a.9.9,0,0,0,0,1.8Z" transform="translate(-716.706 -238.993)" fill="#3f3d56"/>
</svg>
