<svg xmlns="http://www.w3.org/2000/svg" width="307.188" height="214.72" viewBox="0 0 307.188 214.72">
  <g id="Group_13" data-name="Group 13" transform="translate(-0.003 0)">
    <path id="Path_297" data-name="Path 297" d="M165.013,311.063c.294,18.134,7.072,20.1,15.4,18.206a30.588,30.588,0,0,0,21.159-17.893l2.653-6.179a16.857,16.857,0,0,0-8.84-22.139h0a16.857,16.857,0,0,0-22.139,8.84C164.7,295.251,163.018,302.193,165.013,311.063Z" transform="translate(-151.328 -228.662)" fill="#2f2e41"/>
    <path id="Path_298" data-name="Path 298" d="M297.03,237.7l2.555-4.323a4.061,4.061,0,0,0-2.295-5.945h0a4.061,4.061,0,0,0-5.26,4.01l.15,4.647L280.174,269l6.547,1.367Z" transform="translate(-229.824 -191.802)" fill="#9f616a"/>
    <path id="Path_299" data-name="Path 299" d="M128.257,446.153l-3.145,3.915a4.061,4.061,0,0,0,1.424,6.212h0a4.061,4.061,0,0,0,5.778-3.22l.513-4.621L149.4,417.582l-6.286-2.286Z" transform="translate(-124.215 -319.139)" fill="#9f616a"/>
    <path id="Path_300" data-name="Path 300" d="M196.912,532.662l.463,5.56.109,1.3,30.777-2.96a6.786,6.786,0,0,0,5.434-9.514l-9.925-21.309-3.429-7.36-14.857-3.429c-12.251,9.377-1.229,19.725,12.64,30.194q.814.617,1.646,1.234Z" transform="translate(-173.442 -373.077)" fill="#2f2e41"/>
    <path id="Path_301" data-name="Path 301" d="M160.807,627.229h0a2.211,2.211,0,0,0,2.017-.781l10.067-12.187-.571-5.714-3.433-2.06a2.256,2.256,0,0,0-3.259,1.106l-6.566,16.634a2.211,2.211,0,0,0,1.744,3Z" transform="translate(-147.706 -448.392)" fill="#2f2e41"/>
    <path id="Path_302" data-name="Path 302" d="M191.6,531.52l.571,6.857,1.606-.154,29.171-2.806a6.786,6.786,0,0,0,5.434-9.514l-8.211-18.382v-1.783l-3.429-7.36-14.857-3.428c-12.251,9.377-1.229,19.725,12.64,30.194l-.069.091Z" transform="translate(-169.846 -373.078)" opacity="0.2"/>
    <path id="Path_303" data-name="Path 303" d="M151.956,620.149h0a2.211,2.211,0,0,0,2.017-.781l10.067-12.187-.571-5.714-3.433-2.06a2.256,2.256,0,0,0-3.259,1.106l-6.566,16.634a2.211,2.211,0,0,0,1.744,3Z" transform="translate(-141.713 -443.597)" fill="#2f2e41"/>
    <path id="Path_304" data-name="Path 304" d="M188.062,525.582l.571,6.857,30.777-2.961a6.787,6.787,0,0,0,5.437-9.513l-8.214-18.383V491.3l-20-3.428c-12.733,9.745-.327,20.541,14.285,31.428Z" transform="translate(-167.449 -368.283)" fill="#2f2e41"/>
    <circle id="Ellipse_98" data-name="Ellipse 98" cx="8.571" cy="8.571" r="8.571" transform="translate(31.47 59.586)" fill="#9f616a"/>
    <path id="Path_305" data-name="Path 305" d="M212.843,353.637l12,8,10.286-2.286-5.714-5.714v-8.571l-9.143-.571C220.079,347.917,218.118,351.049,212.843,353.637Z" transform="translate(-184.23 -271.194)" fill="#9f616a"/>
    <path id="Path_306" data-name="Path 306" d="M206.516,409.219l22.285,2.857,5.143-24c2.389-6.37,1.018-12-3.4-17.025a3.817,3.817,0,0,0-3.627-3.067l-2.11.092c.239,7.578-5.345,5.753-13.714-.571l-1.011.3a5.676,5.676,0,0,0-3.984,6.269l.921,6.22a42.558,42.558,0,0,0,1.814,7.252C211.113,394.378,210.3,401.607,206.516,409.219Z" transform="translate(-179.617 -286.776)" fill="#bd62f9"/>
    <path id="Path_307" data-name="Path 307" d="M175.672,386.974l10.286,3.429,4.571-16.571-1.549-.7a5.554,5.554,0,0,0-7.194,2.433Z" transform="translate(-159.059 -290.246)" fill="#bd62f9"/>
    <path id="Path_308" data-name="Path 308" d="M145.27,232.661l5.714,6.285,6.857-10.857-8.571-4.571Z" transform="translate(-98.371 -151.36)" fill="#bd62f9"/>
    <path id="Path_309" data-name="Path 309" d="M217.268,306.215c5.386,2.031,11.134,1.82,17.143,0v-6.857H217.268Z" transform="translate(-187.226 -240.629)" fill="#2f2e41"/>
    <path id="Path_310" data-name="Path 310" d="M750.7,413.872l-5.909,2.462-39.394-53.675-28.561,54.66-7.386-1.477L691.114,340.5h25.114Z" transform="translate(-453.331 -230.578)" fill="#2f2e41"/>
    <path id="Path_311" data-name="Path 311" d="M1036.985,696.7h0a2.575,2.575,0,0,1-1.962-.253l-12.462-7.175a2.529,2.529,0,0,1-.526-3.98l1.114-1.114,5.909-.492,9.033,8.672a2.575,2.575,0,0,1-1.106,4.342Z" transform="translate(-731.692 -500.888)" fill="#2f2e41"/>
    <path id="Path_312" data-name="Path 312" d="M766.65,702.805h0a2.575,2.575,0,0,0,1.962-.253l12.462-7.175a2.529,2.529,0,0,0,.526-3.98l-1.114-1.114-5.909-.492-9.033,8.672a2.575,2.575,0,0,0,1.106,4.342Z" transform="translate(-557.969 -505.02)" fill="#2f2e41"/>
    <path id="Path_313" data-name="Path 313" d="M791.887,189.188l-2.462,1.477-5.1-8.291a3.729,3.729,0,0,1,2.408-5.6h0a3.729,3.729,0,0,1,4.487,3.373Z" transform="translate(-570.847 -157.562)" fill="#ffb9b9"/>
    <path id="Path_314" data-name="Path 314" d="M1020.19,409.732l1.022-2.683,9.137,3.361a3.729,3.729,0,0,1,1.573,5.892h0a3.729,3.729,0,0,1-5.612.123Z" transform="translate(-730.944 -313.554)" fill="#ffb9b9"/>
    <circle id="Ellipse_99" data-name="Ellipse 99" cx="7.386" cy="7.386" r="7.386" transform="translate(243.2 46.4)" fill="#ffb9b9"/>
    <path id="Path_315" data-name="Path 315" d="M774.36,189.6H764.019V178.271l8.864-.985Z" transform="translate(-517.372 -120.053)" fill="#ffb9b9"/>
    <path id="Path_316" data-name="Path 316" d="M884.269,360.649H856.2c.99-15.661,1.773-30.8,0-39.394l1.632-7.834a4.414,4.414,0,0,1,4.869-3.479l3.84.48c2.6,4.572,5.744,4.528,9.356.492h4.626a4.638,4.638,0,0,1,4.637,4.729h0a58.584,58.584,0,0,1,1.19,16.813Z" transform="translate(-619.895 -247.772)" fill="#3f3d56"/>
    <path id="Path_317" data-name="Path 317" d="M672.5,93.836l3.939-1.97,21.174,34.962-5.909,8.864Z" transform="translate(-455.396 -62.209)" fill="#3f3d56"/>
    <path id="Path_318" data-name="Path 318" d="M955.638,347.223l3.367-2.84-17.889-25.067a15.854,15.854,0,0,0-15.768-6.384l-.564.1,6.764,11.837,8.909,6.745Z" transform="translate(-666.337 -249.644)" fill="#3f3d56"/>
    <path id="Path_319" data-name="Path 319" d="M891.576,255.41s1.38-3.036-2.208-4.417c0,0-3.036-4.969-9.11-1.656,0,0-4.141,1.656-4.141,6.073s-1.38,5.245-1.38,5.245a13.324,13.324,0,0,0,2.607-3.765c.552-1.656,4.846-2.032,6.5-.376s5.8,1.38,5.8,1.38l-.276,6.073s1.38-3.589,1.932-3.589S892.4,255.41,891.576,255.41Z" transform="translate(-632.448 -205.985)" fill="#2f2e41"/>
    <ellipse id="Ellipse_100" data-name="Ellipse 100" cx="45.196" cy="2.354" rx="45.196" ry="2.354" transform="translate(213.251 210.013)" fill="#e6e6e6"/>
    <ellipse id="Ellipse_101" data-name="Ellipse 101" cx="23.889" cy="1.244" rx="23.889" ry="1.244" transform="translate(8.902 211.122)" fill="#e6e6e6"/>
    <path id="Path_320" data-name="Path 320" d="M473.587,158.851,328.358,171.867a2.7,2.7,0,0,1-2.93-2.448L322.2,133.394a2.7,2.7,0,0,1,2.448-2.93l145.229-13.016a2.7,2.7,0,0,1,2.93,2.448l3.229,36.025A2.7,2.7,0,0,1,473.587,158.851Z" transform="translate(-258.275 -117.436)" fill="#bd62f9"/>
    <circle id="Ellipse_102" data-name="Ellipse 102" cx="11.341" cy="11.341" r="11.341" transform="translate(75.712 20.701)" fill="#fff"/>
    <path id="Path_321" data-name="Path 321" d="M468.977,169.419a1.89,1.89,0,1,0,.337,3.765l88.751-7.954a1.89,1.89,0,0,0-.337-3.765Z" transform="translate(-356.511 -147.246)" fill="#fff"/>
    <path id="Path_322" data-name="Path 322" d="M472.113,204.409a1.89,1.89,0,1,0,.337,3.765L561.2,200.22a1.89,1.89,0,1,0-.337-3.765Z" transform="translate(-358.635 -170.94)" fill="#fff"/>
  </g>
</svg>
