<svg xmlns="http://www.w3.org/2000/svg" width="1261.662" height="934.385" viewBox="0 0 1261.662 934.385">
  <path id="Path_265" data-name="Path 265" d="M685.488,262.781c-68.966,31.356-144.393,45.03-217.935,55.569S319.778,337.01,247.305,359.042c-46.606,14.173-95.864,37.126-118.84,72.786-22.147,34.241-13.964,70.753-2.25,102.575,8.8,23.929,20.111,48.142,44.193,62.769,16.742,10.153,38.474,14.912,56.724,23.554,63.486,30.039,73.78,100.5,63.549,165.31-4.8,30.4-13.047,61.2-12.934,91s9.628,59.328,35.8,76.931c25.943,17.444,64.894,20.987,103.066,18.171,77.564-5.678,155.555-34.741,229.838-65.972,164.479-69.129,322.032-151.546,479.22-233.758,58.145-30.425,116.553-61,170.085-97.033,29.726-20.011,59.075-43,72.8-70.5,17.484-34.911,4.148-72.945-31.1-88.652-59.075-26.348-157.842,8.393-208.784-26.019-28.142-18.943-31.812-53.6-27.225-86.142,9.829-69.913,50.452-146.969,19.444-206.127C1099.6,57.3,1043.568,33.657,982.381,39.505c-64.1,6.133-135.143,44.212-154.247,95.545C808.5,187.917,746.385,235.036,685.488,262.781Z" transform="translate(-114.547 -38.623)" fill="#bd62f9" opacity="0.1"/>
</svg>
