<svg xmlns="http://www.w3.org/2000/svg" xmlns:xlink="http://www.w3.org/1999/xlink" width="629.486" height="477.34" viewBox="0 0 629.486 477.34">
  <defs>
    <linearGradient id="linear-gradient" x1="0.5" y1="1" x2="0.5" gradientUnits="objectBoundingBox">
      <stop offset="0" stop-color="gray" stop-opacity="0.251"/>
      <stop offset="0.54" stop-color="gray" stop-opacity="0.122"/>
      <stop offset="1" stop-color="gray" stop-opacity="0.102"/>
    </linearGradient>
    <linearGradient id="linear-gradient-2" x1="0.5" y1="1.009" x2="0.5" y2="-0.002" xlink:href="#linear-gradient"/>
  </defs>
  <g id="Group_6" data-name="Group 6" transform="translate(0 -0.003)">
    <path id="Path_97" data-name="Path 97" d="M181.739,47s-2.187,8.534,13.1,32.658S209.065,107.2,208.184,114.1s-.83,10.675-9.712,19.146c0,0-26.613,8.737-30.169,14.185s5.877,25.255,5.877,25.255,9.062,24.06-23.48,33.291c0,0-25.464.035-32.525,5.645,0,0,2.733-9.764-5.761-24.124s3.208-28.359,3.208-28.359,9.422-5.187,15.4-5.587,7.879-3.139,4.032-10.014c0,0-5.564-2.9-13.269,3.313s-13.46,10.64-20.173,10.118-16.286-3.353-22.569-15.775-9.59-29.984-14.3-38S57.5,93.414,57.5,93.414s5.947,4.514,26.479-10.809,31.248-8.766,31.248-8.766,16.5,4.433,19.146,33.528c0,0,4.8,27.727,14.551,10.931,0,0-3.3-9.457-9.9-23.381s11.058-27.03,23.985-31.417S181.739,47,181.739,47Z" transform="translate(-57.5 -42.137)" fill="#bd62f9"/>
    <path id="Path_98" data-name="Path 98" d="M88.448,137.35l-.058-.145c4.061-1.694,22.8,8.453,37.775,17.266l-.081.133C104.954,142.177,91.587,136.05,88.448,137.35Z" transform="translate(-70.468 -79.928)" fill="#444053"/>
    <path id="Path_99" data-name="Path 99" d="M152.83,166.937l.162-.087c11.963,7.049,26.317,16,37.067,23.259,1.021.69,2.083,1.375,3.168,2.019l-.168.273c-1.085-.65-2.152-1.334-3.179-2.031C179.141,183.112,164.787,173.98,152.83,166.937Z" transform="translate(-97.522 -92.453)" fill="#444053"/>
    <path id="Path_100" data-name="Path 100" d="M221.63,210.439l.267-.209c21.565,12.944,51.9,9.863,52.17,9.863l-3.348,3.8C270.452,223.911,243.346,223.47,221.63,210.439Z" transform="translate(-126.406 -110.665)" fill="#444053"/>
    <path id="Path_101" data-name="Path 101" d="M223.439,80.61s-7.061,19.662-1.694,33.517-5.8,48.184-5.8,48.184-3.707,14.441-9.672,18.049c0,0-8.65,10.739-13.721,11.969s-16.732,12.126-16.425,18.154" transform="translate(-107.299 -56.247)" fill="none" stroke="#444053" stroke-miterlimit="10" stroke-width="1"/>
    <path id="Path_102" data-name="Path 102" d="M265.177,83S260.2,93.1,252.79,93.008" transform="translate(-139.487 -57.251)" fill="none" stroke="#444053" stroke-miterlimit="10" stroke-width="1"/>
    <path id="Path_103" data-name="Path 103" d="M275.664,105.62S272.653,119.5,254,123.385" transform="translate(-139.995 -66.747)" fill="none" stroke="#444053" stroke-miterlimit="10" stroke-width="1"/>
    <path id="Path_104" data-name="Path 104" d="M284.692,141.28A29.9,29.9,0,0,1,257,153.632" transform="translate(-141.255 -81.718)" fill="none" stroke="#444053" stroke-miterlimit="10" stroke-width="1"/>
    <path id="Path_105" data-name="Path 105" d="M280.909,186.69s-16.518,10.82-29.009,4.879" transform="translate(-139.114 -100.782)" fill="none" stroke="#444053" stroke-miterlimit="10" stroke-width="1"/>
    <path id="Path_106" data-name="Path 106" d="M237.56,83s4.317,9.132,9.091,6.382" transform="translate(-133.093 -57.251)" fill="none" stroke="#444053" stroke-miterlimit="10" stroke-width="1"/>
    <path id="Path_107" data-name="Path 107" d="M210.32,106.91s5.8,12.253,23.956,10.1" transform="translate(-121.657 -67.288)" fill="none" stroke="#444053" stroke-miterlimit="10" stroke-width="1"/>
    <path id="Path_108" data-name="Path 108" d="M207.3,138.67s15.966,9.7,28.916,7.072" transform="translate(-120.39 -80.622)" fill="none" stroke="#444053" stroke-miterlimit="10" stroke-width="1"/>
    <path id="Path_109" data-name="Path 109" d="M221.79,172.52s12.636,10.078,18.566,7.763" transform="translate(-126.473 -94.833)" fill="none" stroke="#444053" stroke-miterlimit="10" stroke-width="1"/>
    <path id="Path_110" data-name="Path 110" d="M216.69,185.47s3.417,10.588.058,12.59" transform="translate(-124.332 -100.27)" fill="none" stroke="#444053" stroke-miterlimit="10" stroke-width="1"/>
    <path id="Path_111" data-name="Path 111" d="M197.4,207.3s6.515-6.469,4.7-7.658" transform="translate(-116.233 -106.219)" fill="none" stroke="#444053" stroke-miterlimit="10" stroke-width="1"/>
    <path id="Path_112" data-name="Path 112" d="M175.536,120.22s5.7,27.088-1.706,34.4" transform="translate(-106.338 -72.876)" fill="none" stroke="#444053" stroke-miterlimit="10" stroke-width="1"/>
    <path id="Path_113" data-name="Path 113" d="M135.67,212.229s25.812-16.576,28.063-26.369" transform="translate(-90.318 -100.434)" fill="none" stroke="#444053" stroke-miterlimit="10" stroke-width="1"/>
    <path id="Path_114" data-name="Path 114" d="M109.9,195.133s24.28-11.319,30.865-22.163" transform="translate(-79.499 -95.022)" fill="none" stroke="#444053" stroke-miterlimit="10" stroke-width="1"/>
    <path id="Path_115" data-name="Path 115" d="M138,105.26s11.749,19.6,4.409,33.314" transform="translate(-91.296 -66.596)" fill="none" stroke="#444053" stroke-miterlimit="10" stroke-width="0.75"/>
    <path id="Path_116" data-name="Path 116" d="M96.25,170.146s17.985-7.281,21.623-14.3" transform="translate(-73.768 -87.835)" fill="none" stroke="#444053" stroke-miterlimit="10" stroke-width="0.75"/>
    <path id="Path_117" data-name="Path 117" d="M102.79,115.56s6.016,11.093,3.214,15.914" transform="translate(-76.514 -70.92)" fill="none" stroke="#444053" stroke-miterlimit="10" stroke-width="0.75"/>
    <path id="Path_118" data-name="Path 118" d="M210.23,228.276s16.245-2.176,17.986,2.065" transform="translate(-121.62 -118.007)" fill="none" stroke="#444053" stroke-miterlimit="10" stroke-width="1"/>
    <path id="Path_119" data-name="Path 119" d="M247.023,268.234S246.147,250.469,236,243.6" transform="translate(-132.438 -124.674)" fill="none" stroke="#444053" stroke-miterlimit="10" stroke-width="1"/>
    <path id="Path_120" data-name="Path 120" d="M178.22,241s17.051,2.013,23.079,13.135" transform="translate(-108.181 -123.583)" fill="none" stroke="#444053" stroke-miterlimit="10" stroke-width="1"/>
    <path id="Path_121" data-name="Path 121" d="M220.4,292.195s2.634-13.013-9.822-22.215" transform="translate(-121.767 -135.749)" fill="none" stroke="#444053" stroke-miterlimit="10" stroke-width="1"/>
    <path id="Path_122" data-name="Path 122" d="M157.05,268.083s14.145-.725,21.722,6" transform="translate(-99.293 -134.943)" fill="none" stroke="#444053" stroke-miterlimit="10" stroke-width="1"/>
    <path id="Path_123" data-name="Path 123" d="M187.023,303.552s-1.323-10.327-5.013-12.282" transform="translate(-109.772 -144.687)" fill="none" stroke="#444053" stroke-miterlimit="10" stroke-width="1"/>
    <path id="Path_124" data-name="Path 124" d="M378.088,153.137c-31.834,16.019-66.651,23-100.6,28.388s-68.211,9.532-101.664,20.788c-21.513,7.241-44.25,18.966-54.856,37.184-10.223,17.492-6.446,36.145-1.038,52.4,4.061,12.224,9.283,24.594,20.4,32.066,7.728,5.187,17.759,7.618,26.183,12.033,29.3,15.346,34.056,51.34,29.334,84.451-2.216,15.531-6.022,31.266-5.97,46.49s4.444,30.308,16.523,39.3c11.975,8.911,29.955,10.722,47.575,9.283,35.8-2.9,71.8-17.748,106.091-33.7C435.99,446.5,508.715,404.4,581.272,362.4c26.839-15.543,53.8-31.161,78.51-49.57,13.721-10.223,27.268-21.965,33.6-36.017,8.07-17.835,1.915-37.265-14.354-45.289-27.268-13.46-72.859,4.288-96.373-13.292-12.99-9.677-14.684-27.384-12.567-44.006,4.537-35.716,23.288-75.081,8.975-105.3-9.828-20.759-35.692-32.838-63.935-29.85-29.589,3.133-62.381,22.586-71.2,48.81C434.87,114.891,406.2,138.963,378.088,153.137Z" transform="translate(-81.45 -38.62)" fill="#bd62f9" opacity="0.1"/>
    <ellipse id="Ellipse_77" data-name="Ellipse 77" cx="58.082" cy="14.348" rx="58.082" ry="14.348" transform="translate(314.879 427.354)" fill="#bd62f9" opacity="0.1"/>
    <rect id="Rectangle_14" data-name="Rectangle 14" width="551.359" height="312.327" rx="12.49" transform="translate(78.127 78.737)" fill="url(#linear-gradient)"/>
    <rect id="Rectangle_15" data-name="Rectangle 15" width="549.671" height="306.896" rx="12.49" transform="translate(79.003 83.129)" fill="#fff"/>
    <rect id="Rectangle_16" data-name="Rectangle 16" width="549.671" height="306.896" rx="12.49" transform="translate(79.003 83.129)" fill="#fff"/>
    <rect id="Rectangle_17" data-name="Rectangle 17" width="549.671" height="306.896" rx="12.49" transform="translate(79.003 83.129)" fill="#5a5773" opacity="0.04"/>
    <path id="Path_125" data-name="Path 125" d="M740.561,175.83H196.471a2.791,2.791,0,0,0-2.791,2.791v11.812H743.351V178.621a2.791,2.791,0,0,0-2.791-2.791Z" transform="translate(-114.672 -96.223)" fill="#5a5773"/>
    <g id="buttons" transform="translate(86.208 83.129)">
      <circle id="Ellipse_78" data-name="Ellipse 78" cx="3.771" cy="3.771" r="3.771" fill="#fff"/>
      <circle id="Ellipse_79" data-name="Ellipse 79" cx="3.771" cy="3.771" r="3.771" transform="translate(10.153)" fill="#fff"/>
      <circle id="Ellipse_80" data-name="Ellipse 80" cx="3.771" cy="3.771" r="3.771" transform="translate(20.306)" fill="#fff"/>
    </g>
    <rect id="Rectangle_18" data-name="Rectangle 18" width="458.34" height="176.374" rx="10.19" transform="translate(115.798 162.143)" fill="#bd62f9" opacity="0.1"/>
    <rect id="Rectangle_19" data-name="Rectangle 19" width="458.34" height="176.374" rx="10.19" transform="matrix(1, 0.025, -0.025, 1, 126.972, 144.903)" fill="#fff"/>
    <line id="Line_1" data-name="Line 1" x2="319.283" y2="8.117" transform="translate(195.531 182.328)" fill="#f4f4f7" stroke="#5a5773" stroke-miterlimit="10" stroke-width="1" opacity="0.2"/>
    <line id="Line_2" data-name="Line 2" x2="319.283" y2="8.117" transform="translate(194.899 207.269)" fill="#f4f4f7" stroke="#5a5773" stroke-miterlimit="10" stroke-width="1" opacity="0.2"/>
    <line id="Line_3" data-name="Line 3" x2="319.283" y2="8.117" transform="translate(194.266 232.205)" fill="#f4f4f7" stroke="#5a5773" stroke-miterlimit="10" stroke-width="1" opacity="0.2"/>
    <line id="Line_4" data-name="Line 4" x2="319.289" y2="8.117" transform="translate(193.628 257.147)" fill="#f4f4f7" stroke="#5a5773" stroke-miterlimit="10" stroke-width="1" opacity="0.2"/>
    <line id="Line_5" data-name="Line 5" x1="0.806" y2="31.707" transform="translate(221.842 251.113)" fill="none" stroke="#5a5773" stroke-miterlimit="10" stroke-width="1" stroke-dasharray="12" opacity="0.2"/>
    <line id="Line_6" data-name="Line 6" x2="319.283" y2="8.111" transform="translate(192.996 282.089)" fill="#f4f4f7" stroke="#5a5773" stroke-miterlimit="10" stroke-width="1" opacity="0.2"/>
    <line id="Line_7" data-name="Line 7" y1="47.267" x2="1.201" transform="translate(257.952 236.47)" fill="none" stroke="#5a5773" stroke-miterlimit="10" stroke-width="1" stroke-dasharray="12" opacity="0.2"/>
    <path id="Path_126" data-name="Path 126" d="M687.185,410.746c-5.692.493-11.25-2.7-14.655-6.051-3.527-3.481-6.086-7.763-8.558-11.928-.783-1.317-1.6-2.675-2.414-3.986-4.311-6.834-8.616-11.43-13.541-14.464a25.782,25.782,0,0,0-5.761-2.634,4.072,4.072,0,0,1-3.661,2.489H638.4a4.061,4.061,0,0,1-3.916-3.522,17.667,17.667,0,0,0-5.344,1.1c-5.065,1.909-8.911,6.011-12.41,10.054-4.235,4.885-8.32,10.008-12.126,15.235q-1.16,1.584-2.321,3.185c-4.131,5.767-8.4,11.725-13.924,16.384-7.415,6.289-16.332,9-23.857,7.252-9.028-2.094-15.485-10.072-20.1-16.79-.58-.87-1.16-1.74-1.787-2.628-4.3-6.382-8.755-12.979-15.322-16.825a25.937,25.937,0,0,0-28.429,2.071c-3.818,3.057-6.684,7.212-9.463,11.226-.952,1.381-1.938,2.808-2.953,4.177-5.222,7.014-10.484,10.82-16.158,11.644a30.707,30.707,0,0,1-6.771,0c-1.5-.1-3.046-.22-4.56-.18a21.925,21.925,0,0,0-18.316,11.412l-.8,33.395,250.816,6.382,1.4-55.25a3.481,3.481,0,0,1-4.885-1.741Z" transform="translate(-218.019 -178.013)" fill="#bd62f9" opacity="0.2"/>
    <line id="Line_8" data-name="Line 8" x1="1.99" y2="78.382" transform="translate(295.032 206.301)" fill="none" stroke="#5a5773" stroke-miterlimit="10" stroke-width="1" stroke-dasharray="12" opacity="0.2"/>
    <line id="Line_9" data-name="Line 9" x1="1.253" y2="49.298" transform="translate(330.747 236.29)" fill="none" stroke="#5a5773" stroke-miterlimit="10" stroke-width="1" stroke-dasharray="12" opacity="0.2"/>
    <line id="Line_10" data-name="Line 10" x1="1.126" y2="44.401" transform="translate(365.662 242.074)" fill="none" stroke="#5a5773" stroke-miterlimit="10" stroke-width="1" stroke-dasharray="12" opacity="0.2"/>
    <line id="Line_11" data-name="Line 11" x1="2.158" y2="84.967" transform="translate(398.39 202.338)" fill="none" stroke="#5a5773" stroke-miterlimit="10" stroke-width="1" stroke-dasharray="12" opacity="0.2"/>
    <line id="Line_12" data-name="Line 12" x1="2.257" y2="88.808" transform="translate(432.649 199.373)" fill="none" stroke="#5a5773" stroke-miterlimit="10" stroke-width="1" stroke-dasharray="12" opacity="0.2"/>
    <line id="Line_13" data-name="Line 13" x1="1.439" y2="56.405" transform="translate(471.521 232.762)" fill="none" stroke="#5a5773" stroke-miterlimit="10" stroke-width="1" stroke-dasharray="12" opacity="0.2"/>
    <path id="Path_127" data-name="Path 127" d="M783.136,364.861a4.072,4.072,0,0,0-6.84,2.309,3.955,3.955,0,0,0-.047.7,2.055,2.055,0,0,0,.035.464,4.062,4.062,0,0,0,1.213,2.385,3.986,3.986,0,0,0,2.7,1.16h.192a4.061,4.061,0,0,0,2.849-1.242,4.159,4.159,0,0,0,.818-1.242,4.008,4.008,0,0,0,.29-1.131,3.217,3.217,0,0,0,0-.528A4.062,4.062,0,0,0,783.136,364.861Zm-.2,4.177a2.633,2.633,0,0,1-.528.76,2.9,2.9,0,0,1-4.937-1.5,2.412,2.412,0,0,1-.052-.458,2.788,2.788,0,0,1,.07-.7,2.9,2.9,0,0,1,2.773-2.263h.134a2.9,2.9,0,0,1,2.825,2.837v.18A2.7,2.7,0,0,1,782.933,369.038Z" transform="translate(-359.247 -175.107)" fill="#bd62f9"/>
    <circle id="Ellipse_81" data-name="Ellipse 81" cx="3.481" cy="3.481" r="3.481" transform="translate(469.514 228.521)" fill="#bd62f9"/>
    <path id="Path_128" data-name="Path 128" d="M635.864,370.326a2.406,2.406,0,0,0,.052.458c-.395,0-.789,0-1.16.029a17.744,17.744,0,0,0-5.349,1.1c-5.065,1.909-8.911,6.011-12.416,10.055-4.235,4.879-8.32,10.008-12.131,15.23-.772,1.056-1.532,2.123-2.321,3.191-4.137,5.767-8.407,11.719-13.924,16.384-7.42,6.283-16.344,8.993-23.874,7.246-9.016-2.089-15.473-10.072-20.115-16.79-.58-.865-1.2-1.741-1.787-2.628-4.311-6.382-8.766-12.979-15.334-16.825a25.935,25.935,0,0,0-28.429,2.071c-3.765,3.052-6.666,7.206-9.445,11.221-.957,1.381-1.944,2.814-2.959,4.177-5.222,7.014-10.49,10.82-16.164,11.644a31.084,31.084,0,0,1-6.771,0,44.368,44.368,0,0,0-4.566-.18,21.884,21.884,0,0,0-19.024,12.834l-1.068-.464a23.091,23.091,0,0,1,20.057-13.53,43.253,43.253,0,0,1,4.688.186,30.2,30.2,0,0,0,6.515,0c5.355-.772,10.391-4.433,15.4-11.186,1-1.352,1.984-2.773,2.936-4.148,2.825-4.061,5.75-8.3,9.695-11.47a26.752,26.752,0,0,1,29.74-2.164c6.8,3.986,11.331,10.693,15.717,17.185.58.87,1.16,1.741,1.781,2.617,4.5,6.544,10.762,14.313,19.413,16.315,7.171,1.665,15.717-.951,22.859-7,5.39-4.566,9.631-10.443,13.721-16.175q1.14-1.6,2.321-3.2c3.835-5.222,7.937-10.4,12.184-15.311,3.6-4.154,7.542-8.372,12.886-10.374a19,19,0,0,1,5.767-1.16c.389,0,.789-.035,1.16,0A2.788,2.788,0,0,0,635.864,370.326Z" transform="translate(-217.696 -177.59)" fill="#bd62f9"/>
    <path id="Path_129" data-name="Path 129" d="M837.261,410.678c-6.806,2.541-14-1.253-18.1-5.28-3.528-3.481-6.086-7.769-8.558-11.934-.783-1.311-1.6-2.675-2.419-3.98-4.311-6.84-8.616-11.435-13.547-14.47a25.879,25.879,0,0,0-5.761-2.628c-.371-.122-.748-.226-1.16-.325A2.7,2.7,0,0,0,788,370.93c.383.1.76.209,1.16.325a26.885,26.885,0,0,1,6.074,2.773c5.094,3.127,9.515,7.838,13.924,14.835.83,1.323,1.642,2.686,2.437,4.015,2.437,4.1,4.955,8.337,8.372,11.691,3.847,3.783,10.582,7.374,16.877,5.024Z" transform="translate(-364.063 -178.13)" fill="#bd62f9"/>
    <rect id="Rectangle_20" data-name="Rectangle 20" width="11.836" height="5.222" rx="0.9" transform="matrix(1, 0.025, -0.025, 1, 195.656, 177.126)" fill="#bd62f9" opacity="0.5"/>
    <rect id="Rectangle_21" data-name="Rectangle 21" width="11.836" height="5.222" rx="0.9" transform="matrix(1, 0.025, -0.025, 1, 195.015, 202.061)" fill="#bd62f9"/>
    <rect id="Rectangle_22" data-name="Rectangle 22" width="11.836" height="5.222" rx="0.9" transform="matrix(1, 0.025, -0.025, 1, 194.38, 227.008)" fill="#bd62f9" opacity="0.5"/>
    <rect id="Rectangle_23" data-name="Rectangle 23" width="11.836" height="5.222" rx="0.9" transform="matrix(1, 0.025, -0.025, 1, 193.744, 251.943)" fill="#bd62f9" opacity="0.5"/>
    <rect id="Rectangle_24" data-name="Rectangle 24" width="11.836" height="5.222" rx="0.9" transform="matrix(1, 0.025, -0.025, 1, 193.109, 276.884)" fill="#bd62f9" opacity="0.5"/>
    <rect id="Rectangle_25" data-name="Rectangle 25" width="11.836" height="5.222" rx="0.9" transform="matrix(1, 0.025, -0.025, 1, 215.06, 287.889)" fill="#bd62f9" opacity="0.5"/>
    <rect id="Rectangle_26" data-name="Rectangle 26" width="11.836" height="5.222" rx="0.9" transform="matrix(1, 0.025, -0.025, 1, 251.889, 288.827)" fill="#bd62f9" opacity="0.5"/>
    <rect id="Rectangle_27" data-name="Rectangle 27" width="11.836" height="5.222" rx="0.9" transform="translate(287.652 291.328) rotate(1.718)" fill="#bd62f9"/>
    <rect id="Rectangle_28" data-name="Rectangle 28" width="11.836" height="5.222" rx="0.9" transform="matrix(1, 0.025, -0.025, 1, 324.683, 290.681)" fill="#bd62f9" opacity="0.5"/>
    <rect id="Rectangle_29" data-name="Rectangle 29" width="11.836" height="5.222" rx="0.9" transform="matrix(1, 0.025, -0.025, 1, 359.593, 291.576)" fill="#bd62f9" opacity="0.5"/>
    <rect id="Rectangle_30" data-name="Rectangle 30" width="11.836" height="5.222" rx="0.9" transform="matrix(1, 0.025, -0.025, 1, 392.318, 292.404)" fill="#bd62f9"/>
    <rect id="Rectangle_31" data-name="Rectangle 31" width="11.836" height="5.222" rx="0.9" transform="matrix(1, 0.025, -0.025, 1, 426.823, 293.283)" fill="#bd62f9"/>
    <rect id="Rectangle_32" data-name="Rectangle 32" width="11.836" height="5.222" rx="1.39" transform="translate(464.187 296.629) rotate(1.718)" fill="#bd62f9"/>
    <path id="Path_130" data-name="Path 130" d="M1033.563,643.463a5.744,5.744,0,1,1-4.061,1.683,5.744,5.744,0,0,1,4.061-1.683m0-.893a6.643,6.643,0,1,0,6.643,6.631,6.643,6.643,0,0,0-6.643-6.631Z" transform="translate(-464.485 -292.171)" fill="#bd62f9"/>
    <path id="Path_131" data-name="Path 131" d="M1035.3,654.391l.348-.464a1.845,1.845,0,0,0,1.271.528c.58,0,1.039-.3,1.039-.766s-.424-.847-1.6-.847v-.534c1.044,0,1.439-.348,1.439-.8s-.354-.667-.87-.667a1.7,1.7,0,0,0-1.1.447l-.371-.447a2.321,2.321,0,0,1,1.5-.58c.9,0,1.566.435,1.566,1.2,0,.534-.389.888-.957,1.079v.029a1.247,1.247,0,0,1,1.114,1.16c0,.824-.777,1.323-1.706,1.323A2.245,2.245,0,0,1,1035.3,654.391Z" transform="translate(-468.003 -295.399)" fill="#bd62f9"/>
    <path id="Path_132" data-name="Path 132" d="M1080.853,644.133a5.744,5.744,0,1,1-4.061,1.682,5.744,5.744,0,0,1,4.061-1.682m0-.893a6.637,6.637,0,1,0,4.7,1.944,6.643,6.643,0,0,0-4.7-1.944Z" transform="translate(-484.338 -292.452)" fill="#5a5773"/>
    <path id="Path_133" data-name="Path 133" d="M1084.013,652.3a7.094,7.094,0,0,1,.041-.928h-.041c-.162.25-.348.5-.51.748l-1.16,1.514h3.139v.609h-3.951v-.487l2.355-3.1h.865v4.931h-.719Z" transform="translate(-487.412 -295.567)" fill="#5a5773"/>
    <path id="Path_134" data-name="Path 134" d="M1059.432,648.024a.609.609,0,0,1,.853,0l2.994,3.005a.58.58,0,0,1,0,.836l-2.947,2.959a.605.605,0,1,1-.859-.853l2.53-2.553-2.57-2.541a.58.58,0,0,1,0-.859Z" transform="translate(-478.055 -294.388)" fill="#5a5773"/>
    <path id="Path_135" data-name="Path 135" d="M1050.77,649.285a6.527,6.527,0,1,0,6.515-6.515A6.527,6.527,0,0,0,1050.77,649.285Zm1,0a5.529,5.529,0,1,1,1.619,3.9A5.465,5.465,0,0,1,1051.774,649.285Z" transform="translate(-474.498 -292.255)" fill="#5a5773"/>
    <rect id="Rectangle_33" data-name="Rectangle 33" width="131.839" height="13.837" rx="3.86" transform="translate(96.362 109.684)" fill="#5a5773" opacity="0.2"/>
    <path id="Path_136" data-name="Path 136" d="M651.406,580.869c-.963-3.481-1.59-6.556-1.59-6.556a13.656,13.656,0,0,0-1.787-6.643l-.035-.957h0l-.273-7.078a24.089,24.089,0,0,1,1.642-3.777c1.2-2.274-.394-10.374-.394-10.374s-5.169-11.308-4.3-18.641-10.942-32-10.942-32a31.63,31.63,0,0,1,.743-7.2,5.889,5.889,0,0,0,.081-1.508c0-.064,0-.116,0-.186v.058c-.342-4.8-4.491-13.663-4.491-13.663l-.151-17.191s2.036-10.223-2.448-23.66c-1.561-4.688-2.593-8.447-3.266-11.36-.075-.325-.151-.644-.215-.946,8.122-1.561,14.278-2.831,14.278-2.831s-5.483-19.581-8.807-22.917-6.295-14.1-6.295-14.1-2.2-13.9.325-18.078,2.64-11.232,2.64-11.232,5.953-4.688,6.643-6.689a32.823,32.823,0,0,0,1.706-8.853c-.087-2.35-.94-4.415-.731-5.663s-2.013-5.86-1.079-8.122a6.128,6.128,0,0,0,.325-2.158s0-.046,0-.064v-.029a30.139,30.139,0,0,0-.76-5.773,16.4,16.4,0,0,0-6.185-3.011l-.157-.522-.406-1.4c-.209-.128-.412-.238-.615-.336l-.035-.5-.133-2,.783-4.525c1.578-7.919-8.929-8.7-8.929-8.7a5.483,5.483,0,0,0-3.069-2.483c-2.135-.661.1,11.812,1.12,12.572.76.58,3.2,4.421,4.38,6.312h0l.186.307a5.452,5.452,0,0,0-.458.522l.5,2.709.075.412a11.439,11.439,0,0,0-1.561,2.9s2,2.031,1.706,4.392a13.64,13.64,0,0,0,.841,5.407c-.116-.128-1.52-1.532-2.849-1.126s-5.048,1.677-5.048,1.677-2.791.58-2.512,1.213-1.787,3.411-1.787,3.411l-7.821-6.863c-.081-.209-.168-.418-.244-.638a17.6,17.6,0,0,1-.777-3.1,17.752,17.752,0,0,0,2.385-.864,5.222,5.222,0,0,0,2.036-1.416,8.168,8.168,0,0,0,1.091-3.3c.511-2.216,1.741-4.224,2.559-6.347a20.346,20.346,0,0,0,1.068-11.226,7.443,7.443,0,0,0-1.282-3.237c-1.3-1.648-3.557-2.251-5.222-3.539s-2.808-3.313-4.74-4.258a9.06,9.06,0,0,0-5.744-.267,30.806,30.806,0,0,0-10.582,4.288c-1.073.69-2.251,1.491-3.528,1.311a4.782,4.782,0,0,1-2.651-1.793.145.145,0,0,1,.029-.1l-.087-.1a13.293,13.293,0,0,0-.951,5.692,5.939,5.939,0,0,0,.07.905,1.149,1.149,0,0,0,.029.313,1.961,1.961,0,0,1,0,.261h0a1.563,1.563,0,0,1-.041.4,2.935,2.935,0,0,1-.667,1.05,6.043,6.043,0,0,0-.58.859.99.99,0,0,1,.093-.307,4.456,4.456,0,0,0-.69,2.408,2.361,2.361,0,0,0,.632,1.677,8.213,8.213,0,0,0,1.271.946,13.989,13.989,0,0,0-.128,2.524,14.574,14.574,0,0,0,7.589,12.184l.279.638a18.119,18.119,0,0,1,1.688,8.175,3.611,3.611,0,0,1-.07.58c-.093.1-.18.215-.261.325h0s-12.456.58-15.491-1.944-7.154,6.771-7.154,6.771-4.433,1.039-5.355.209-6.132.11-6.132.11a11.284,11.284,0,0,0-7.9-2.541,23,23,0,0,0-5.831-2.959h0l-.139-.046h0a6.417,6.417,0,0,0-2.826-.249s-6.318-4.827-8.21-7.478-10.791-12.4-10.832-12.445l-.041-.493-.151-1.462a5.935,5.935,0,0,1-.76.093q-.075-.215-.191-.5a27.948,27.948,0,0,0-1.967-4.061s-.07-1.857.453-2.321-.5-7.252-.5-7.252-6.016-12.694-10.594-2.866c0,0-9.109,6.6-.98,13.553,0,0,3.191,1.392,3.678,2.576.319.772,1.468,2.9,2.24,4.328l.342.638-.087.075.162,1.207.064.47c-1.445.9-2.414,1.77-2.147,2.385a13.877,13.877,0,0,1,1.021,3.3s11.371,13.176,13,18.925c0,0,29.763,16.175,39.382,17.046l-1.323,8.7a70.286,70.286,0,0,0-.116,7.055c.2,1.833-.754,10.3-.754,10.3s-1.16,12.422-2.518,14.2-.8,9.184-.8,9.184a62.205,62.205,0,0,1-1.508,10.577c-1.224,4.746,0,10.513,0,10.513s-4.421,11.308,6.9,3.324c0,0,5.692-.58,12.247-1.05v.656c0,.847.035,1.741.064,2.727.157,6.382.458,15.148,1,21.774.963,11.714,5.43,34.811,5.43,34.811l.447,11.667a15.863,15.863,0,0,0-.2,3.348,21.675,21.675,0,0,0,3.591,11.557l1.2,7.751s2.321,5.042,2.448,8.123a4.258,4.258,0,0,1-.058.748,5.344,5.344,0,0,0-.058,1.2c0,3.539,2.472,11.911,2.472,11.911s.458,8.517,1.74,8.964c1.108.383-1.271,4.966-1.978,6.289a1.238,1.238,0,0,0-.058-.244l-.145.261a5.986,5.986,0,0,0-.319,2.17,3.1,3.1,0,0,0,1.532,2.941c2.483,1.392,3.835,2.576,1.793,3.15a22.259,22.259,0,0,0-2.228.58l-.116-.278a1.358,1.358,0,0,0-.737,1.462,6.275,6.275,0,0,0,.87,2.86,30.759,30.759,0,0,0,3.7,6.167l.975-.151a4.879,4.879,0,0,1-.528,1.079,4.061,4.061,0,0,1-1.392,1.334,4.444,4.444,0,0,1-1.741.667,4.914,4.914,0,0,0-3.551,1.9c-1.207,1.694-1.92,3.969.673,5.842l9.248,2.8s15.775,1.439,14.806-2.054-1.59-6.556-1.59-6.556a14,14,0,0,0-1.514-6.2,7.073,7.073,0,0,0-.58-.9l.551-.087s.853-7.827,2.321-9.364c.337-.36.406-.621.319-.824.139-.429-.267-.661-.789-.783-.035.1-.07.2-.1.313a7.338,7.338,0,0,0-1.491-.1s-.667-4.061.934-5.6a1.549,1.549,0,0,0,.273-1.224,6.608,6.608,0,0,0-.232-1.654s-.035.064-.058.1a60.4,60.4,0,0,0-4.032-9.44s-.267-3.7.7-5.222-.905-20.132-.905-20.132.035-9.033-1.276-13.187,1.027-9.2,1.027-9.2a1.266,1.266,0,0,0-.041-.267.282.282,0,0,0,.029-.064s-.075-.58-.2-1.416v.087c-.348-2.379-1-6.684-1.439-8.668-.621-2.82-.5-16.436-.5-16.436l2.077-5.895,4.467,9.863,4.85,13.176a11.343,11.343,0,0,1,2.419,5.587v1.311a7.942,7.942,0,0,0,1.508,4.705s1.393,6.254,3.237,7.792,1.973,4.641,1.973,4.641,2.518,9.057,3.6,10.623c.911,1.323,1.1,5.042,1.16,6.179h0v.331s.429,3.255.522,6v.905a9.659,9.659,0,0,1-.18,2.234.2.2,0,0,1-.035.128v-.464a23.414,23.414,0,0,0-.435,5.721c.07,3.29.719,7.159,2.8,9.37,3.6,3.823,5.75,3.243,5.75,3.243s-1.468,5.007-3.481,6.074a1.03,1.03,0,0,0-.209.145,1.657,1.657,0,0,0-.064-.284,2.4,2.4,0,0,0-.528,1.862,13.217,13.217,0,0,0,2.808,7.229,4.09,4.09,0,0,0,1.741.94,2.939,2.939,0,0,1-.313.209,6.174,6.174,0,0,1-.69.36,3.342,3.342,0,0,1-1.033.313,4.885,4.885,0,0,0-3.545,1.9c-1.207,1.688-1.926,3.963.667,5.837l9.254,2.8S652.375,584.361,651.406,580.869Z" transform="translate(-241.111 -141.592)" fill="url(#linear-gradient-2)"/>
    <path id="Path_137" data-name="Path 137" d="M654.015,797.1l-8.952-2.785c-2.512-1.88-1.828-4.154-.656-5.842a4.7,4.7,0,0,1,3.429-1.9,4.142,4.142,0,0,0,1.665-.661,3.969,3.969,0,0,0,1.352-1.334,6.573,6.573,0,0,0,.876-3.452s9.59-3.214,12.352-.476a7.139,7.139,0,0,1,1.242,1.677,14.394,14.394,0,0,1,1.479,6.185s.609,3.063,1.549,6.556S654.015,797.1,654.015,797.1Z" transform="translate(-303.455 -349.676)" fill="#2d293d"/>
    <path id="Path_138" data-name="Path 138" d="M728.283,786.712l-8.958-2.808c-2.512-1.88-1.822-4.154-.656-5.842a4.671,4.671,0,0,1,3.429-1.891,3.147,3.147,0,0,0,1-.313,5.465,5.465,0,0,0,.673-.354c2.419-1.456,2.222-4.786,2.222-4.786s9.59-3.214,12.358-.476a7.06,7.06,0,0,1,.975,1.224,14.048,14.048,0,0,1,1.741,6.655s.615,3.069,1.549,6.556S728.283,786.712,728.283,786.712Z" transform="translate(-334.633 -345.306)" fill="#2d293d"/>
    <path id="Path_139" data-name="Path 139" d="M669.508,780.61a7.142,7.142,0,0,1,1.242,1.677h0l-14.47,2.245a6.574,6.574,0,0,0,.876-3.452S666.746,777.871,669.508,780.61Z" transform="translate(-308.882 -349.659)" opacity="0.1"/>
    <path id="Path_140" data-name="Path 140" d="M743.258,771.465l.1,2.721c-2.112,3.812-13.083,3.417-16.332,1.671a5.484,5.484,0,0,0,.673-.354c2.419-1.456,2.222-4.786,2.222-4.786s9.59-3.214,12.358-.476a7.067,7.067,0,0,1,.975,1.224Z" transform="translate(-338.584 -345.306)" opacity="0.1"/>
    <path id="Path_141" data-name="Path 141" d="M700.049,648.889a24.243,24.243,0,0,0-1.584,3.771l.377,9.759c-2.321,4.172-15.218,3.307-17.034,1.16s-3.887-7.89-1.949-8.958,3.353-6.063,3.353-6.063-2.083.58-5.57-3.249-2.837-12.636-2.321-14.76-.36-9.144-.36-9.144-.064-4.943-1.114-6.51-3.481-10.629-3.481-10.629-.116-3.092-1.909-4.641-3.145-7.8-3.145-7.8a8.123,8.123,0,0,1-1.439-5.262c.249-3.1-2.35-6.347-2.35-6.347l-4.711-13.176-4.34-9.863-2,5.895s-.093,13.611.511,16.431,1.636,10.333,1.636,10.333-2.286,5.036-1.01,9.19,1.247,13.193,1.247,13.193,1.833,18.612.9,20.132-.661,5.222-.661,5.222,5.483,10.675,3.934,12.219-.9,5.6-.9,5.6,3.481-.133,2.031,1.41-2.234,9.364-2.234,9.364l-14.87,2.321a31.024,31.024,0,0,1-3.591-6.173c-2.153-4.5.215-4.09,2.181-4.641s.667-1.741-1.741-3.15-1.16-4.781-1.16-4.781,3.348-6.19,2.094-6.637-1.706-8.964-1.706-8.964-2.86-10.037-2.321-12.764-2.321-9.19-2.321-9.19l-1.16-7.751a21.406,21.406,0,0,1-3.342-14.62l-.464-11.986s-4.351-23.091-5.3-34.811c-.58-7.508-.911-17.765-1.05-24.17-.081-3.6-.11-5.976-.11-5.976l53.156-7.612a44.2,44.2,0,0,0,1.271,7.89c.656,2.9,1.659,6.672,3.179,11.366,4.351,13.437,2.4,23.66,2.4,23.66l.168,17.191s5.135,11.308,4.3,15.3a32.941,32.941,0,0,0-.69,7.194s11.464,24.675,10.635,32.008,4.177,18.641,4.177,18.641S701.2,646.614,700.049,648.889Z" transform="translate(-294.1 -234.525)" fill="#575988"/>
    <path id="Path_142" data-name="Path 142" d="M700.34,641.891,716.5,639.1S707.685,648.847,700.34,641.891Z" transform="translate(-327.379 -290.714)" opacity="0.05"/>
    <path id="Path_143" data-name="Path 143" d="M721.173,611.9s.777,5.721-2.663,8.018C718.51,619.918,724.776,618.688,721.173,611.9Z" transform="translate(-335.007 -279.295)" opacity="0.1"/>
    <path id="Path_144" data-name="Path 144" d="M706.547,580.45s-13.153,11.7-18.125,10.965S706.547,580.45,706.547,580.45Z" transform="translate(-322.081 -266.092)" opacity="0.1"/>
    <path id="Path_145" data-name="Path 145" d="M658.484,654.29s-10.234,2.733-10.385,6.893S658.484,654.29,658.484,654.29Z" transform="translate(-305.446 -297.091)" opacity="0.1"/>
    <path id="Path_146" data-name="Path 146" d="M665.328,742.93s-14.47,3.278-10.263,4.972a69.741,69.741,0,0,0,11.064,2.9S670.829,750.884,665.328,742.93Z" transform="translate(-308.05 -334.304)" opacity="0.05"/>
    <g id="Group_4" data-name="Group 4" transform="translate(327.011 277.958)" opacity="0.05">
      <path id="Path_147" data-name="Path 147" d="M649.389,755.27a2.9,2.9,0,0,1-1.41-2.06l-.139.267s-1.236,3.388,1.16,4.781c.278.157.534.313.783.47.424-.1.893-.174,1.334-.307C653.1,757.851,651.8,756.662,649.389,755.27Z" transform="translate(-632.215 -616.578)"/>
      <path id="Path_148" data-name="Path 148" d="M682.53,751.977c.389-.389.336-1.334.046-2.547a6.83,6.83,0,0,0-.69,3.609,2.837,2.837,0,0,1,.644-1.062Z" transform="translate(-646.64 -614.991)"/>
      <path id="Path_149" data-name="Path 149" d="M674.512,648a16.828,16.828,0,0,0-.812,4.578,18.05,18.05,0,0,1,1.01-3.168S674.634,648.882,674.512,648Z" transform="translate(-643.206 -572.409)"/>
      <path id="Path_150" data-name="Path 150" d="M732.03,633.658a5.8,5.8,0,0,0,.087-1.358c-.151.934-.244,1.793-.308,2.547C731.874,634.447,731.949,634.064,732.03,633.658Z" transform="translate(-667.602 -565.818)"/>
      <path id="Path_151" data-name="Path 151" d="M677.177,721.756a8.107,8.107,0,0,0,.261-2.756,9.358,9.358,0,0,0-.58,3.481A3.315,3.315,0,0,1,677.177,721.756Z" transform="translate(-644.531 -602.216)"/>
      <path id="Path_152" data-name="Path 152" d="M668.968,763.7a48.312,48.312,0,0,0-1.41,7.653l-14.87,2.321a30.68,30.68,0,0,1-3.58-6.185c-.186-.395-.342-.748-.464-1.073-.876.447-1.2,1.387.087,4.061a31.256,31.256,0,0,0,3.585,6.173l14.87-2.321s.812-7.827,2.24-9.37C670.117,764.216,669.635,763.874,668.968,763.7Z" transform="translate(-632.364 -620.982)"/>
      <path id="Path_153" data-name="Path 153" d="M637.153,639s.453,8.523,1.706,8.97h0c.58-1.439.934-2.791.371-2.988-1.253-.447-1.706-8.97-1.706-8.97s-2.86-10.031-2.321-12.764-2.321-9.19-2.321-9.19l-1.16-7.745a21.44,21.44,0,0,1-3.284-14.6l-.464-11.981s-4.351-23.091-5.3-34.811c-.58-7.5-.911-17.765-1.05-24.17,0-1.16-.046-2.181-.064-3.046l-.424.058s0,2.379.1,5.976c.145,6.382.447,16.663,1.056,24.164.946,11.72,5.3,34.811,5.3,34.811l.424,11.975a21.44,21.44,0,0,0,3.284,14.6l1.16,7.751s2.849,6.446,2.321,9.184S637.153,639,637.153,639Z" transform="translate(-621.14 -517.71)"/>
      <path id="Path_154" data-name="Path 154" d="M724.158,768.223a14.306,14.306,0,0,1-2.593-5.773c-1.474,1.433.487,6.707,2.211,8.761,1.816,2.158,14.713,3.023,17.028-1.16l-.093-2.355C737.5,771.147,725.87,770.265,724.158,768.223Z" transform="translate(-663.083 -620.457)"/>
      <path id="Path_155" data-name="Path 155" d="M756.694,747.033a24.237,24.237,0,0,0-1.584,3.771l.064,1.74a26.551,26.551,0,0,1,1.16-2.524,7.543,7.543,0,0,0,.423-3.081A.377.377,0,0,0,756.694,747.033Z" transform="translate(-677.384 -613.946)"/>
      <path id="Path_156" data-name="Path 156" d="M721.442,738.623a24.388,24.388,0,0,0,1.1-2.982s-2.083.58-5.57-3.249c-2.535-2.785-2.9-8.21-2.675-11.772-.54,2.123-1.189,10.93,2.321,14.754C718.877,737.875,720.554,738.5,721.442,738.623Z" transform="translate(-660.071 -602.896)"/>
      <path id="Path_157" data-name="Path 157" d="M696.535,656.219a67.519,67.519,0,0,1,.528,7.31,9.51,9.51,0,0,1,.209-1.16c.54-2.123-.36-9.138-.36-9.138s-.064-4.949-1.114-6.515-3.481-10.629-3.481-10.629-.116-3.087-1.909-4.641-3.156-7.78-3.156-7.78a8.082,8.082,0,0,1-1.439-5.262c.249-3.1-2.321-6.341-2.321-6.341l-4.752-13.2L674.4,589l-2,5.918v1.88l1.624-4.786,4.34,9.863,4.717,13.182s2.6,3.243,2.321,6.341a8.123,8.123,0,0,0,1.439,5.268s1.358,6.254,3.144,7.8S691.9,639.1,691.9,639.1s2.448,9.062,3.481,10.629S696.535,656.219,696.535,656.219Z" transform="translate(-642.66 -547.639)"/>
    </g>
    <path id="Path_158" data-name="Path 158" d="M707.766,304.326l-.754,4.549.133,2,.093,1.479-5.129.731-.621-1.044h0c-1.16-1.891-3.51-5.738-4.247-6.318-.986-.76-3.168-13.234-1.1-12.572a5.419,5.419,0,0,1,2.971,2.489S709.286,296.412,707.766,304.326Z" transform="translate(-325.256 -145.466)" fill="#ffcdd3"/>
    <path id="Path_159" data-name="Path 159" d="M711.73,324.824l-5.129.731-.621-1.044h0a4.555,4.555,0,0,1,5.657-1.16Z" transform="translate(-329.747 -157.935)" opacity="0.1"/>
    <path id="Path_160" data-name="Path 160" d="M712.939,327.559l-6.736,1.833-.186-1-.487-2.709a4.688,4.688,0,0,1,6.544-1.16l.395,1.375Z" transform="translate(-329.558 -158.274)" fill="#dce6f2"/>
    <path id="Path_161" data-name="Path 161" d="M515.689,305.1l-7.1,4.177s-.3-.58-.714-1.346c-.743-1.421-1.857-3.562-2.17-4.328-.476-1.16-3.562-2.588-3.562-2.588-7.873-6.962.934-13.547.934-13.547,4.415-9.822,10.258,2.9,10.258,2.9s1,6.771.493,7.252-.435,2.321-.435,2.321A27.175,27.175,0,0,1,515.3,304C515.556,304.68,515.689,305.1,515.689,305.1Z" transform="translate(-242.797 -141.528)" fill="#ffcdd3"/>
    <path id="Path_162" data-name="Path 162" d="M522.205,319.78l-7.1,4.177s-.3-.58-.714-1.346c.992-.893,4.508-3.98,5.709-3.893a9.217,9.217,0,0,0,1.741,0C522.072,319.363,522.205,319.78,522.205,319.78Z" transform="translate(-249.313 -156.21)" opacity="0.1"/>
    <path id="Path_163" data-name="Path 163" d="M523.209,322.237l-7.995,4.328-.232-1.741-.162-1.207s4.572-4.229,5.97-4.131a7.469,7.469,0,0,0,2.129-.087l.151,1.468Z" transform="translate(-249.493 -156.497)" fill="#dce6f2"/>
    <path id="Path_164" data-name="Path 164" d="M663.269,345.631s-35.391,5.378-28.835,2.965c4.566-1.682,6.295-4.694,6.55-7.972a18.229,18.229,0,0,0-1.636-8.175,35.391,35.391,0,0,0-3.429-6.3s26.6-16,21.71-2.2a21.665,21.665,0,0,0-1.294,6.5,18.066,18.066,0,0,0,.946,6.492A19.419,19.419,0,0,0,663.269,345.631Z" transform="translate(-299.37 -156.051)" fill="#ffcdd3"/>
    <path id="Path_165" data-name="Path 165" d="M659.3,323.943a21.668,21.668,0,0,0-1.294,6.5c-2.477,2.251-5.291,2.216-8.894,2.356-2.773.1-5.8.893-8.076-.354a35.39,35.39,0,0,0-3.429-6.3S664.194,310.152,659.3,323.943Z" transform="translate(-301.044 -156.05)" opacity="0.1"/>
    <circle id="Ellipse_82" data-name="Ellipse 82" cx="14.713" cy="14.713" r="14.713" transform="translate(332.325 148.294)" fill="#ffcdd3"/>
    <path id="Path_166" data-name="Path 166" d="M663.269,358.125s-35.391,5.378-28.835,2.965c4.566-1.682,6.295-4.694,6.55-7.972,1.7-1.984,5.222-3.481,7.455-4.328a10.675,10.675,0,0,1,6.44-.354,8.879,8.879,0,0,1,2.384,1A19.419,19.419,0,0,0,663.269,358.125Z" transform="translate(-299.37 -168.545)" opacity="0.1"/>
    <path id="Path_167" data-name="Path 167" d="M713.291,329.07l-6.736,1.833-.186-1a6.016,6.016,0,0,1,6.452-2.489Z" transform="translate(-329.911 -159.785)" opacity="0.1"/>
    <path id="Path_168" data-name="Path 168" d="M523.327,323.3l-7.995,4.328-.232-1.741a59.58,59.58,0,0,1,8.088-3.957Z" transform="translate(-249.611 -157.559)" opacity="0.1"/>
    <path id="Path_169" data-name="Path 169" d="M675.529,513.14c-13.681,2.7-33.169,6.289-36.313,5.459-2.611-.685-10.844-.284-17.985.238-.081-3.6-.11-5.976-.11-5.976l53.156-7.612A42.722,42.722,0,0,0,675.529,513.14Z" transform="translate(-294.121 -234.521)" opacity="0.1"/>
    <path id="Path_170" data-name="Path 170" d="M643.142,432.767S598.1,442.294,593.177,441s-29.839,1.271-29.839,1.271c-10.954,7.966-6.684-3.33-6.684-3.33s-1.213-5.767-.035-10.513a64.4,64.4,0,0,0,1.45-10.571s-.534-7.4.76-9.184,2.419-14.2,2.419-14.2.911-8.453.719-10.3.1-7.055.1-7.055l1.271-8.7c-9.283-.882-38.141-17.092-38.141-17.092-1.584-5.755-12.607-18.937-12.607-18.937a14.067,14.067,0,0,0-.992-3.3c-.818-1.949,10.147-6.33,10.147-6.33s8.668,9.811,10.5,12.462,7.96,7.484,7.96,7.484a6.109,6.109,0,0,1,2.733.255.789.789,0,0,1,.145.041h0a22.254,22.254,0,0,1,5.657,2.965,10.734,10.734,0,0,1,7.641,2.553s5.036-.934,5.935-.1,5.187-.2,5.187-.2,3.974-9.312,6.916-6.765,15,1.961,15,1.961c1.526-2.2,5.372-3.881,7.786-4.763a10.675,10.675,0,0,1,6.44-.354,8.336,8.336,0,0,1,2.593,1.16l7.589,6.881s2-2.8,1.741-3.406S618,341.726,618,341.726s3.539-1.253,4.885-1.671,2.646,1,2.756,1.126a14.56,14.56,0,0,1-.818-5.407c.273-2.3-1.654-4.392-1.654-4.392,3.916-10.791,14.017-2.268,14.017-2.268s1.334,5.761.429,8.024,1.253,6.881,1.056,8.122.621,3.319.714,5.663a32.726,32.726,0,0,1-1.671,8.813c-.685,2.025-6.382,6.678-6.382,6.678s-.1,7.055-2.535,11.226-.3,18.078-.3,18.078,2.9,10.774,6.109,14.116S643.142,432.767,643.142,432.767Z" transform="translate(-248.123 -157.907)" fill="#656691"/>
    <path id="Path_171" data-name="Path 171" d="M614.411,371.318s-1.514-4.026-2.767-4.346A29.391,29.391,0,0,1,608,365.5l.737-1.555s4.694,1.1,5.483,2.425S614.411,371.318,614.411,371.318Z" transform="translate(-288.613 -175.2)" opacity="0.1"/>
    <path id="Path_172" data-name="Path 172" d="M567.591,360.563c-.2,1.247-11.151,2.779-11.151,2.779l5.343-5.8h0l.139.046h0A22.255,22.255,0,0,1,567.591,360.563Z" transform="translate(-266.967 -172.509)" opacity="0.1"/>
    <circle id="Ellipse_83" data-name="Ellipse 83" cx="0.986" cy="0.986" r="0.986" transform="translate(267.171 171.339)" fill="#575988"/>
    <circle id="Ellipse_84" data-name="Ellipse 84" cx="0.986" cy="0.986" r="0.986" transform="translate(268.512 173.265)" fill="#575988"/>
    <circle id="Ellipse_85" data-name="Ellipse 85" cx="0.986" cy="0.986" r="0.986" transform="translate(269.817 175.041)" fill="#575988"/>
    <circle id="Ellipse_86" data-name="Ellipse 86" cx="0.986" cy="0.986" r="0.986" transform="translate(271.192 176.967)" fill="#575988"/>
    <circle id="Ellipse_87" data-name="Ellipse 87" cx="0.806" cy="0.806" r="0.806" transform="translate(387.813 172.557)" fill="#575988"/>
    <circle id="Ellipse_88" data-name="Ellipse 88" cx="0.806" cy="0.806" r="0.806" transform="translate(388.005 174.373)" fill="#575988"/>
    <circle id="Ellipse_89" data-name="Ellipse 89" cx="0.806" cy="0.806" r="0.806" transform="translate(388.185 176.189)" fill="#575988"/>
    <path id="Path_173" data-name="Path 173" d="M621.38,434.35c-.122-.145,29.078,33.952,49.9,12.8C671.3,447.148,637.317,453.1,621.38,434.35Z" transform="translate(-294.23 -204.755)" opacity="0.1"/>
    <path id="Path_174" data-name="Path 174" d="M595,466.919s16.68-.186,18.606,4.537l.191,4.99a3.179,3.179,0,0,1-3.1.122c-1.741-.847-11.986-5.576-15.444-2.976Z" transform="translate(-283.155 -218.428)" opacity="0.1"/>
    <path id="Path_175" data-name="Path 175" d="M595.55,466.9s15.955-.18,17.794,4.328l.186,4.752a3.057,3.057,0,0,1-2.965.116c-1.642-.8-11.464-5.314-14.771-2.831Z" transform="translate(-283.386 -218.42)" fill="#656691"/>
    <path id="Path_176" data-name="Path 176" d="M608.29,404a53.737,53.737,0,0,0,6.893,10.832,43.407,43.407,0,0,0,10.5,9.387S608.661,406.251,608.29,404Z" transform="translate(-288.734 -192.014)" opacity="0.1"/>
    <path id="Path_177" data-name="Path 177" d="M597.61,370.94s3.243,11.894,10.565,15.694Z" transform="translate(-284.251 -178.134)" opacity="0.1"/>
    <path id="Path_178" data-name="Path 178" d="M590.221,373.307c-.081-.22-2.106,9.585,9.8,14.5C600.026,387.818,594.99,386.321,590.221,373.307Z" transform="translate(-281.074 -179.127)" opacity="0.1"/>
    <path id="Path_179" data-name="Path 179" d="M715.227,354.6c-.186,0,5.924,3.574,7.606,5.274C722.833,359.872,718.737,354.245,715.227,354.6Z" transform="translate(-333.627 -171.267)" opacity="0.1"/>
    <path id="Path_180" data-name="Path 180" d="M640.318,318.557a3.082,3.082,0,0,0,1.224,1.938,2.994,2.994,0,0,0,1.4.255c4.491.11,9.161.128,13.24-1.741a5,5,0,0,0,1.973-1.421,8.243,8.243,0,0,0,1.05-3.3c.493-2.216,1.659-4.224,2.472-6.347a20.955,20.955,0,0,0,1.021-11.267,7.542,7.542,0,0,0-1.247-3.237c-1.253-1.654-3.446-2.257-5.071-3.545s-2.715-3.319-4.589-4.264a8.5,8.5,0,0,0-5.558-.278,29.135,29.135,0,0,0-10.205,4.3c-1.038.69-2.176,1.491-3.411,1.305a4.731,4.731,0,0,1-2.622-1.851,13.721,13.721,0,0,0-.853,6.446,2.864,2.864,0,0,1,0,.969,2.935,2.935,0,0,1-.644,1.044c-1.056,1.329-1.671,3.382-.528,4.641.5.545,1.242.824,1.741,1.381.87,1,.65,2.5.679,3.823a1.955,1.955,0,0,0,.377,1.288,1.9,1.9,0,0,0,1.828.366,4.914,4.914,0,0,1,1.926-.261,3.185,3.185,0,0,1,1.741,1.23C638.409,312.558,639.332,315.418,640.318,318.557Z" transform="translate(-296.737 -142.066)" fill="#2d293d"/>
    <g id="Group_5" data-name="Group 5" transform="translate(330.611 146.867)" opacity="0.1">
      <path id="Path_181" data-name="Path 181" d="M658.6,325.857a4.966,4.966,0,0,1-1.967,1.416c-4.061,1.886-8.749,1.868-13.245,1.741a2.323,2.323,0,0,1-2.622-2.2c-.986-3.133-1.909-6-4.061-8.552a3.215,3.215,0,0,0-1.74-1.224,5.008,5.008,0,0,0-1.926.255,1.914,1.914,0,0,1-1.833-.36,2.008,2.008,0,0,1-.377-1.294c-.029-1.323.191-2.82-.673-3.818-.487-.58-1.23-.835-1.74-1.387a2.9,2.9,0,0,1-.395-2.936c-.737,1.276-1.015,2.9-.058,3.945.493.545,1.242.824,1.74,1.387.87,1,.65,2.495.679,3.818a1.955,1.955,0,0,0,.377,1.288,1.9,1.9,0,0,0,1.828.366,5.024,5.024,0,0,1,1.926-.261,3.185,3.185,0,0,1,1.74,1.23c2.176,2.553,3.092,5.413,4.061,8.552a3.111,3.111,0,0,0,1.224,1.944,3.065,3.065,0,0,0,1.4.255c4.491.1,9.161.122,13.24-1.74a5.049,5.049,0,0,0,1.973-1.416,4.092,4.092,0,0,0,.58-1.218A2.3,2.3,0,0,1,658.6,325.857Z" transform="translate(-627.344 -298.368)"/>
      <path id="Path_182" data-name="Path 182" d="M630.4,298.925a2.082,2.082,0,0,0,.418-.76,2.683,2.683,0,0,0,0-.963,13.623,13.623,0,0,1,.482-5.343l-.087-.1a13.726,13.726,0,0,0-.853,6.446A3.769,3.769,0,0,1,630.4,298.925Z" transform="translate(-628.578 -291.76)"/>
    </g>
    <path id="Path_183" data-name="Path 183" d="M645.77,357.557s18.455,1.741,20-1.1" transform="translate(-304.469 -172.055)" opacity="0.1"/>
    <path id="Path_184" data-name="Path 184" d="M706.8,342.872s10.205-.377,12.6,3.359" transform="translate(-330.091 -166.346)" opacity="0.1"/>
    <path id="Path_185" data-name="Path 185" d="M1084.562,677s3.44,4.5-1.59,11.29-9.173,12.526-7.5,16.761c0,0,7.589-12.613,13.762-12.793S1091.355,684.577,1084.562,677Z" transform="translate(-484.711 -306.625)" fill="#bd62f9"/>
    <path id="Path_186" data-name="Path 186" d="M1084.7,677a5.344,5.344,0,0,1,.7,1.41c6.028,7.078,9.236,13.686,3.446,13.849-5.4.157-11.87,9.8-13.42,12.236a5.706,5.706,0,0,0,.186.58s7.589-12.613,13.762-12.793S1091.5,684.577,1084.7,677Z" transform="translate(-484.851 -306.625)" opacity="0.1"/>
    <path id="Path_187" data-name="Path 187" d="M1101.865,686.138c0,1.584-.18,2.866-.4,2.866s-.395-1.282-.395-2.866.22-.835.441-.835S1101.865,684.554,1101.865,686.138Z" transform="translate(-495.615 -310.037)" fill="#ffd037"/>
    <path id="Path_188" data-name="Path 188" d="M1104.254,689.322c-1.392.754-2.6,1.213-2.709,1.021s.94-.963,2.321-1.741.841-.209.952,0S1105.641,688.562,1104.254,689.322Z" transform="translate(-495.811 -311.33)" fill="#ffd037"/>
    <path id="Path_189" data-name="Path 189" d="M1054.5,677s-3.441,4.5,1.584,11.29,9.178,12.526,7.5,16.761c0,0-7.589-12.613-13.762-12.793S1047.709,684.577,1054.5,677Z" transform="translate(-472.824 -306.625)" fill="#bd62f9"/>
    <path id="Path_190" data-name="Path 190" d="M1054.5,677a5.348,5.348,0,0,0-.7,1.41c-6.028,7.078-9.236,13.686-3.446,13.849,5.4.157,11.865,9.8,13.419,12.236a5.645,5.645,0,0,1-.186.58s-7.589-12.613-13.762-12.793S1047.709,684.577,1054.5,677Z" transform="translate(-472.824 -306.625)" opacity="0.1"/>
    <path id="Path_191" data-name="Path 191" d="M1049.06,686.138c0,1.584.18,2.866.4,2.866s.395-1.282.395-2.866-.22-.835-.441-.835S1049.06,684.554,1049.06,686.138Z" transform="translate(-473.78 -310.037)" fill="#ffd037"/>
    <path id="Path_192" data-name="Path 192" d="M1044.669,689.322c1.392.754,2.6,1.213,2.709,1.021s-.94-.963-2.321-1.741-.847-.209-.952,0S1043.277,688.562,1044.669,689.322Z" transform="translate(-471.582 -311.33)" fill="#ffd037"/>
    <ellipse id="Ellipse_90" data-name="Ellipse 90" cx="35.971" cy="5.517" rx="35.971" ry="5.517" transform="translate(554.788 421.801)" fill="#bd62f9" opacity="0.1"/>
    <path id="Path_193" data-name="Path 193" d="M1080.861,713.37l-.174,1.4-.238,1.984-.1.83-.244,1.984-.1.83-.244,1.978-2.75,22.569c-.25,2.013-3.539,3.585-7.507,3.585h-14.307c-3.974,0-7.258-1.572-7.5-3.585l-2.761-22.569-.238-1.978-.1-.83-.25-1.984-.1-.83-.244-1.984-.168-1.4c-.139-1.16,1.642-2.1,3.887-2.1H1077C1079.219,711.27,1081.006,712.227,1080.861,713.37Z" transform="translate(-471.583 -321.013)" fill="#65617d"/>
    <path id="Path_194" data-name="Path 194" d="M1023.315,678.69l-.244,1.984h-36.2l-.238-1.984Z" transform="translate(-414.21 -284.929)" fill="#9d9cb5"/>
    <path id="Path_195" data-name="Path 195" d="M1023.22,683.53l-.238,1.99H987.464l-.244-1.99Z" transform="translate(-414.458 -286.96)" fill="#9d9cb5"/>
    <path id="Path_196" data-name="Path 196" d="M1023.12,688.38l-.238,1.984H988.054l-.244-1.984Z" transform="translate(-414.705 -288.997)" fill="#9d9cb5"/>
  </g>
</svg>
